<?xml version="1.0" encoding="utf-8"?>
<!-- Generator: Adobe Illustrator 21.1.0, SVG Export Plug-In . SVG Version: 6.00 Build 0)  -->
<svg version="1.1" id="Layer_1" xmlns="http://www.w3.org/2000/svg" xmlns:xlink="http://www.w3.org/1999/xlink" x="0px" y="0px"
	 viewBox="0 0 52 52" style="enable-background:new 0 0 52 52;" xml:space="preserve">
<style type="text/css">
	.st0{opacity:0.5;}
	.st1{fill:#0082F3;}
	.st2{opacity:0.5;fill:#0082F3;}
	.st3{fill:#28B371;}
</style>
<g>
	<g class="st0">
		<path class="st1" d="M49,11H3c-0.6,0-1-0.4-1-1s0.4-1,1-1h46c0.6,0,1,0.4,1,1S49.6,11,49,11z"/>
	</g>
	<g class="st0">
		<path class="st1" d="M49,21.7H3c-0.6,0-1-0.4-1-1s0.4-1,1-1h46c0.6,0,1,0.4,1,1S49.6,21.7,49,21.7z"/>
	</g>
	<g class="st0">
		<path class="st1" d="M49,32.3H3c-0.6,0-1-0.4-1-1s0.4-1,1-1h46c0.6,0,1,0.4,1,1S49.6,32.3,49,32.3z"/>
	</g>
	<g>
		<path class="st2" d="M49,43H3c-0.6,0-1-0.4-1-1s0.4-1,1-1h46c0.6,0,1,0.4,1,1S49.6,43,49,43z"/>
	</g>
	<g>
		<path class="st1" d="M26.6,31.3h-4.7L20,26.5h-8.6l-1.8,4.9H5.1l8.4-21.5H18L26.6,31.3z M18.7,22.8l-3-8l-2.9,8H18.7z"/>
	</g>
	<g>
		<path class="st3" d="M33.2,41.6V20.9h4v7.5c1.2-1.4,2.7-2.1,4.4-2.1c1.8,0,3.3,0.7,4.5,2c1.2,1.3,1.8,3.2,1.8,5.7
			c0,2.6-0.6,4.5-1.8,5.9c-1.2,1.4-2.7,2.1-4.5,2.1c-0.9,0-1.7-0.2-2.5-0.6c-0.8-0.4-1.6-1.1-2.2-1.9v2.2H33.2z M37.1,33.8
			c0,1.6,0.2,2.7,0.7,3.5c0.7,1.1,1.6,1.6,2.7,1.6c0.9,0,1.6-0.4,2.2-1.1c0.6-0.8,0.9-1.9,0.9-3.5c0-1.7-0.3-3-0.9-3.7
			c-0.6-0.8-1.4-1.1-2.4-1.1c-1,0-1.7,0.4-2.4,1.1C37.5,31.2,37.1,32.3,37.1,33.8z"/>
	</g>
</g>
</svg>
