<?xml version="1.0" encoding="UTF-8" standalone="no"?>
<svg
   xmlns:dc="http://purl.org/dc/elements/1.1/"
   xmlns:cc="http://creativecommons.org/ns#"
   xmlns:rdf="http://www.w3.org/1999/02/22-rdf-syntax-ns#"
   xmlns:svg="http://www.w3.org/2000/svg"
   xmlns="http://www.w3.org/2000/svg"
   xmlns:sodipodi="http://sodipodi.sourceforge.net/DTD/sodipodi-0.dtd"
   xmlns:inkscape="http://www.inkscape.org/namespaces/inkscape"
   id="Layer_1"
   style="enable-background:new 0 0 500 500;"
   version="1.1"
   viewBox="0 0 500 500"
   xml:space="preserve"
   sodipodi:docname="arrow-left-muted.svg"
   inkscape:version="0.92.4 (5da689c313, 2019-01-14)"><metadata
     id="metadata17"><rdf:RDF><cc:Work
         rdf:about=""><dc:format>image/svg+xml</dc:format><dc:type
           rdf:resource="http://purl.org/dc/dcmitype/StillImage" /><dc:title /></cc:Work></rdf:RDF></metadata><defs
     id="defs15" /><sodipodi:namedview
     pagecolor="#ffffff"
     bordercolor="#666666"
     borderopacity="1"
     objecttolerance="10"
     gridtolerance="10"
     guidetolerance="10"
     inkscape:pageopacity="0"
     inkscape:pageshadow="2"
     inkscape:window-width="1920"
     inkscape:window-height="1013"
     id="namedview13"
     showgrid="false"
     inkscape:zoom="0.472"
     inkscape:cx="-127.11864"
     inkscape:cy="334.74576"
     inkscape:window-x="-9"
     inkscape:window-y="-9"
     inkscape:window-maximized="1"
     inkscape:current-layer="Layer_1" /><style
     type="text/css"
     id="style2">
	.st0{fill:#3F4040;}
</style><g
     id="g6"
     style="fill:#969696;fill-opacity:1"><path
       class="st0"
       d="M136.2,273.1h232.5c12.7,0,23.1-10.3,23.1-23.1c0-12.7-10.3-23.1-23.1-23.1H136.2c-12.7,0-23.1,10.3-23.1,23.1   C113.1,262.7,123.4,273.1,136.2,273.1z"
       id="path4"
       style="fill:#969696;fill-opacity:1" /></g><g
     id="g10"
     style="fill:#969696;fill-opacity:1"><path
       class="st0"
       d="M240.4,392.5c5.9,0,11.8-2.3,16.3-6.8c9-9,9-23.6,0-32.6L154.9,251.3c-0.7-0.7-0.7-1.9,0-2.6l101.8-101.8   c9-9,9-23.6,0-32.6c-9-9-23.6-9-32.6,0L122.2,216.1c-18.7,18.7-18.7,49.2,0,67.9l101.8,101.8C228.6,390.3,234.5,392.5,240.4,392.5z   "
       id="path8"
       style="fill:#969696;fill-opacity:1" /></g></svg>