<?xml version="1.0" ?><svg id="Layer_1" style="enable-background:new 0 0 500 500;" version="1.1" viewBox="0 0 500 500" xml:space="preserve" xmlns="http://www.w3.org/2000/svg" xmlns:xlink="http://www.w3.org/1999/xlink"><style type="text/css">
	.st0{fill:#3F4040;}
</style><g><path class="st0" d="M136.2,273.1h232.5c12.7,0,23.1-10.3,23.1-23.1c0-12.7-10.3-23.1-23.1-23.1H136.2c-12.7,0-23.1,10.3-23.1,23.1   C113.1,262.7,123.4,273.1,136.2,273.1z"/></g><g><path class="st0" d="M240.4,392.5c5.9,0,11.8-2.3,16.3-6.8c9-9,9-23.6,0-32.6L154.9,251.3c-0.7-0.7-0.7-1.9,0-2.6l101.8-101.8   c9-9,9-23.6,0-32.6c-9-9-23.6-9-32.6,0L122.2,216.1c-18.7,18.7-18.7,49.2,0,67.9l101.8,101.8C228.6,390.3,234.5,392.5,240.4,392.5z   "/></g></svg>