<?xml version="1.0" ?><svg id="Layer_1" style="enable-background:new 0 0 500 500;" version="1.1" viewBox="0 0 500 500" xml:space="preserve" xmlns="http://www.w3.org/2000/svg" xmlns:xlink="http://www.w3.org/1999/xlink"><style type="text/css">
	.st0{fill:#3F4040;}
</style><g><path class="st0" d="M363.8,273.1H131.3c-12.7,0-23.1-10.3-23.1-23.1c0-12.7,10.3-23.1,23.1-23.1h232.5c12.7,0,23.1,10.3,23.1,23.1   C386.9,262.7,376.6,273.1,363.8,273.1z"/></g><g><path class="st0" d="M259.6,392.5c-5.9,0-11.8-2.3-16.3-6.8c-9-9-9-23.6,0-32.6l101.8-101.8c0.7-0.7,0.7-1.9,0-2.6L243.3,146.9   c-9-9-9-23.6,0-32.6c9-9,23.6-9,32.6,0l101.8,101.8c18.7,18.7,18.7,49.2,0,67.9L275.9,385.8C271.4,390.3,265.5,392.5,259.6,392.5z"/></g></svg>