<?xml version="1.0" encoding="utf-8"?>
<!-- Generator: Adobe Illustrator 21.1.0, SVG Export Plug-In . SVG Version: 6.00 Build 0)  -->
<svg version="1.1" id="레이어_1" xmlns="http://www.w3.org/2000/svg" xmlns:xlink="http://www.w3.org/1999/xlink" x="0px"
	 y="0px" viewBox="0 0 512 512" style="enable-background:new 0 0 512 512;" xml:space="preserve">
<style type="text/css">
	.st0{fill:#FFFFFF;}
	.st1{fill:#444444;}
	.st2{fill:#2196F3;}
</style>
<g>
	<g>
		<path class="st0" d="M256.5,116.5c118.6,0,206.2,116.6,206.2,223c0,106.4-92.3,162-206.2,162h-0.1c-113.9,0-206.2-55.6-206.2-162
			s87.5-223,206.2-223H256.5z"/>
		<path class="st1" d="M256.5,511.5h-0.1c-60.6,0-113.1-14.9-151.7-43c-42.2-30.8-64.5-75.4-64.5-129c0-55.5,22.2-113.1,61-157.9
			c41.9-48.4,97-75.1,155.1-75.1h0.1c58.2,0,113.3,26.7,155.1,75.1c38.8,44.8,61,102.4,61,157.9c0,53.6-22.3,98.2-64.5,129
			C369.5,496.6,317.1,511.5,256.5,511.5z M256.3,126.5c-112.3,0-196.2,112.5-196.2,213c0,112.2,105.7,152,196.2,152h0.1
			c90.5,0,196.2-39.8,196.2-152c0-100.6-83.9-213-196.2-213H256.3z"/>
	</g>
	<g>
		<path class="st2" d="M221.2,149.5c0,0,32.1-92.2,47.8-115.6c15.6-23.4,39.1-26.6,51.6-12.5c12.5,14.1,3.1,43.8-15.6,61
			c0,0,28.9-7.4,43.8-9.4c10.4-1.4,40.4-3.1,45.3,20.3C399.8,120.9,304.4,158,221.2,149.5z"/>
		<path class="st1" d="M246.4,160.7c-8.9,0-17.8-0.4-26.2-1.3c-3-0.3-5.8-2-7.4-4.6c-1.6-2.6-2-5.8-1-8.7
			c1.3-3.8,32.7-93.7,48.9-117.9c10.8-16.1,25.7-25.4,41.1-25.4c10.2,0,19.5,4.2,26.2,11.8c11.7,13.1,10,33.6,1.1,51.6
			c6.6-1.4,13.2-2.7,18.3-3.3c2.7-0.4,6.9-0.8,11.9-0.8c24.4,0,40.7,10.6,44.6,28.9c1.1,5.1,0.8,13.1-6.6,22.2
			C376,139.5,308.4,160.7,246.4,160.7z M235,140.5c31.4,1.4,66.3-3.3,96.7-13c23.9-7.6,42.6-17.6,50-26.7c1.8-2.3,2.8-4.3,2.5-5.5
			c-1.8-8.7-10.2-13.1-25-13.1c-3.8,0-7.1,0.3-9.2,0.6c-14.1,1.9-42.3,9.1-42.6,9.2c-4.4,1.1-9.1-0.9-11.3-4.9s-1.3-9,2-12.1
			C313.3,61,321,36.9,313.1,28c-3-3.3-6.9-5.1-11.3-5.1c-8.4,0-17.6,6.2-24.5,16.5C266.7,55.3,246.1,109.7,235,140.5z"/>
	</g>
	<g>
		<circle class="st1" cx="160.6" cy="303.2" r="20.3"/>
		<circle class="st1" cx="352.1" cy="303.2" r="20.3"/>
	</g>
	<g>
		<polygon class="st2" points="201.8,370.4 254.2,348.4 310.9,370.4 256.4,438.2 		"/>
		<path class="st1" d="M256.4,448.2c-3,0-5.9-1.4-7.8-3.7L194,376.7c-2-2.4-2.7-5.7-1.9-8.7c0.8-3,2.9-5.6,5.8-6.8l52.3-22
			c2.4-1,5.1-1,7.5-0.1l56.8,22c3,1.2,5.2,3.7,6,6.7c0.8,3.1,0.1,6.4-1.9,8.9l-54.6,67.7C262.3,446.8,259.4,448.2,256.4,448.2z
			 M218,374.5l38.4,47.7l38.2-47.4l-40.3-15.6L218,374.5z"/>
	</g>
</g>
</svg>
