<?xml version="1.0" encoding="utf-8"?>
<!-- Generator: Adobe Illustrator 21.1.0, SVG Export Plug-In . SVG Version: 6.00 Build 0)  -->
<svg version="1.1" id="Layer_1" xmlns="http://www.w3.org/2000/svg" xmlns:xlink="http://www.w3.org/1999/xlink" x="0px" y="0px"
	 viewBox="0 0 512 512" style="enable-background:new 0 0 512 512;" xml:space="preserve">
<style type="text/css">
	.st0{fill:#2196F3;}
</style>
<path class="st0" d="M432,476v-18h-27V26H99v432H72v18H45v18h414v-18H432z M324,62h45v45h-45V62z M324,125h45v45h-45V125z M324,188
	h45v45h-45V188z M324,251h45v45h-45V251z M324,314h45v45h-45V314z M261,62h45v45h-45V62z M261,125h45v45h-45V125z M261,188h45v45
	h-45V188z M261,251h45v45h-45V251z M261,314h45v45h-45V314z M261,377h45v81h-45V377z M198,62h45v45h-45V62z M198,125h45v45h-45V125z
	 M198,188h45v45h-45V188z M198,251h45v45h-45V251z M198,314h45v45h-45V314z M135,62h45v45h-45V62z M135,125h45v45h-45V125z M135,188
	h45v45h-45V188z M135,251h45v45h-45V251z M135,314h45v45h-45V314z M198,377h45v81h-45V377z"/>
</svg>
