<?xml version="1.0" encoding="utf-8"?>
<!-- Generator: Adobe Illustrator 21.1.0, SVG Export Plug-In . SVG Version: 6.00 Build 0)  -->
<svg version="1.1" id="Layer_1" xmlns="http://www.w3.org/2000/svg" xmlns:xlink="http://www.w3.org/1999/xlink" x="0px" y="0px"
	 viewBox="0 0 512 512" style="enable-background:new 0 0 512 512;" xml:space="preserve">
<style type="text/css">
	.st0{fill:none;}
	.st1{fill:#2196F3;}
</style>
<g>
	<rect class="st0" width="512" height="512"/>
	<path class="st1" d="M304,64c0,26.5-21.5,48-48,48s-48-21.5-48-48s21.5-48,48-48S304,37.5,304,64z M400,224c-115.2,0-172.8,0-288,0
		c-17.7,0-30.2,9-28,20c3.2,16,4.8,24,8,40c2.2,11,17,20,33.1,20c7.9,0,15.3,0,22.6,0l-3.1-40c-0.4-4.3,3.1-8,7.3-8H360
		c4.3,0,7.7,3.7,7.3,8l-3.1,40c7.3,0,14.8,0,22.6,0c16.1,0,30.9-9,33.1-20c3.2-16,4.8-24,8-40C430.2,233,417.7,224,400,224z
		 M160,272l14.7,206.2c0.7,10.1,7.9,17.8,16.6,17.8h129.3c8.7,0,15.9-7.7,16.6-17.8L352,272H160z M288,128
		c-4.1,29.2-12.2,49.4-19.3,62.1c-0.5-24.4-4.7-46.1-4.7-46.1s8-8.5,8-16h-32c0,7.5,8,16,8,16s-4.2,21.7-4.7,46.1
		c-7.1-12.8-15.2-32.9-19.3-62.1c-16,0-64,0-64,48v32h83.7H256h12.3H352v-32C352,128,304,128,288,128z"/>
</g>
</svg>
