<svg id="Layer_1" data-name="Layer 1" xmlns="http://www.w3.org/2000/svg" viewBox="0 0 16 16"><defs><style>.cls-1{fill:#fff;}</style></defs><title>car-white</title><path class="cls-1" d="M13.92,5.26l-.64-3.2A2.4,2.4,0,0,0,11,.19H9v-.5a1.5,1.5,0,0,0-1.5-1.5A1.5,1.5,0,0,0,6-.31v.5H4A2.4,2.4,0,0,0,1.72,2.06l-.64,3.2A1.5,1.5,0,0,0,0,6.69v3.5a1,1,0,0,0,1,1v1.5a1.5,1.5,0,0,0,3,0v-1.5h7v1.5a1.5,1.5,0,0,0,3,0v-1.5a1,1,0,0,0,1-1V6.69A1.5,1.5,0,0,0,13.92,5.26ZM2.5,9.19A1.5,1.5,0,1,1,4,7.69,1.5,1.5,0,0,1,2.5,9.19Zm-.39-4L2.7,2.26A1.4,1.4,0,0,1,4,1.19h7a1.4,1.4,0,0,1,1.3,1.07l.59,2.93Zm10.39,4A1.5,1.5,0,1,1,14,7.69,1.5,1.5,0,0,1,12.5,9.19Z"/></svg>