<?xml version="1.0" encoding="utf-8"?>
<!-- Generator: Adobe Illustrator 21.1.0, SVG Export Plug-In . SVG Version: 6.00 Build 0)  -->
<svg version="1.1" id="Layer_1" xmlns="http://www.w3.org/2000/svg" xmlns:xlink="http://www.w3.org/1999/xlink" x="0px" y="0px"
	 viewBox="0 0 16 14.2" style="enable-background:new 0 0 16 14.2;" xml:space="preserve">
<style type="text/css">
	.st0{fill:#666666;}
</style>
<title>car-white</title>
<path class="st0" d="M13.9,5.3l-0.6-3.2C13,1,12.1,0.2,11,0.2H9v-0.5c0-0.8-0.7-1.5-1.5-1.5S6-1.1,6-0.3v0.5H4C2.9,0.2,2,1,1.7,2.1
	L1.1,5.3C0.4,5.4,0,6,0,6.7v3.5c0,0.6,0.4,1,1,1v1.5c0,0.8,0.7,1.5,1.5,1.5S4,13.5,4,12.7v-1.5h7v1.5c0,0.8,0.7,1.5,1.5,1.5
	s1.5-0.7,1.5-1.5v-1.5c0.6,0,1-0.4,1-1V6.7C15,6,14.6,5.4,13.9,5.3z M2.5,9.2C1.7,9.2,1,8.5,1,7.7s0.7-1.5,1.5-1.5S4,6.9,4,7.7v0
	C4,8.5,3.3,9.2,2.5,9.2z M2.1,5.2l0.6-2.9c0.1-0.6,0.7-1,1.3-1.1h7c0.6,0,1.2,0.5,1.3,1.1l0.6,2.9L2.1,5.2z M12.5,9.2
	c-0.8,0-1.5-0.7-1.5-1.5s0.7-1.5,1.5-1.5S14,6.9,14,7.7v0C14,8.5,13.3,9.2,12.5,9.2z"/>
</svg>
