<?xml version="1.0" ?><!DOCTYPE svg  PUBLIC '-//W3C//DTD SVG 1.1//EN'
  'http://www.w3.org/Graphics/SVG/1.1/DTD/svg11.dtd'>
<svg  height="22px" width="22px" style="shape-rendering:geometricPrecision; text-rendering:geometricPrecision; image-rendering:optimizeQuality; fill-rule:evenodd; clip-rule:evenodd" viewBox="0 0 6.72 6.72" xml:space="preserve" xmlns="http://www.w3.org/2000/svg" xmlns:xlink="http://www.w3.org/1999/xlink"><defs><style type="text/css">
   <![CDATA[
    .fil2 {fill:none}
    .fil1 {fill:#C2E4F8}
    .fil0 {fill:#0A93E2;fill-rule:nonzero}
   ]]>
  </style></defs><g id="Layer_x0020_1"><g id="_257012376"><path class="fil0" d="M0.901512 0.802091l4.91698 0c0.056063,0 0.101512,0.0454488 0.101512,0.101512l0 3.30442c0,0.0560591 -0.0454488,0.101512 -0.101512,0.101512l-4.91698 0c-0.0560591,0 -0.101512,-0.0454528 -0.101512,-0.101512l0 -3.30442c0,-0.056063 0.0454528,-0.101512 0.101512,-0.101512zm4.81546 0.203024l-4.71395 0 0 3.1014 4.71395 0 0 -3.1014z" id="_257012232"/><path class="fil0" d="M2.11091 5.75706c-0.0328465,0.0453307 -0.0227244,0.108717 0.0226063,0.141563 0.0453307,0.0328465 0.108717,0.0227244 0.141563,-0.0226063l1.08493 -1.49537 1.08493 1.49537c0.0328465,0.0453307 0.0962323,0.0554528 0.141563,0.0226063 0.0453307,-0.0328465 0.0554528,-0.0962323 0.0226063,-0.141563l-1.1636 -1.60381c-0.00664567,-0.010374 -0.0153071,-0.0197126 -0.0258819,-0.0273858 -0.045378,-0.0329213 -0.108858,-0.0228228 -0.14178,0.0225512l0.0821654 0.0596142 -0.0820827 -0.0594803 -1.16702 1.60851z" id="_257012808"/><path class="fil0" d="M1.68797 1.64803c-0.0560591,0 -0.101512,0.0454528 -0.101512,0.101512 0,0.056063 0.0454528,0.101512 0.101512,0.101512l2.69641 0c0.0560591,0 0.101512,-0.0454488 0.101512,-0.101512 0,-0.0560591 -0.0454528,-0.101512 -0.101512,-0.101512l-2.69641 0z" id="_257012616"/><path class="fil0" d="M1.68797 2.18995c-0.0560591,0 -0.101512,0.0454488 -0.101512,0.101512 0,0.056063 0.0454528,0.101512 0.101512,0.101512l2.86824 0c0.0560591,0 0.101512,-0.0454488 0.101512,-0.101512 0,-0.056063 -0.0454528,-0.101512 -0.101512,-0.101512l-2.86824 0z" id="_257012544"/><path class="fil0" d="M1.68797 2.73188c-0.0560591,0 -0.101512,0.0454488 -0.101512,0.101512 0,0.0560591 0.0454528,0.101512 0.101512,0.101512l3.34407 0c0.0560591,0 0.101512,-0.0454528 0.101512,-0.101512 0,-0.056063 -0.0454528,-0.101512 -0.101512,-0.101512l-3.34407 0z" id="_257012208"/></g><path class="fil1" d="M1.68797 2.9349c-0.0560591,0 -0.101512,-0.0454528 -0.101512,-0.101512 0,-0.056063 0.0454528,-0.101512 0.101512,-0.101512l3.34407 0c0.0560591,0 0.101512,0.0454488 0.101512,0.101512 0,0.0560591 -0.0454528,0.101512 -0.101512,0.101512l-3.34407 0zm2.86824 -0.541925l-2.86824 0c-0.0560591,0 -0.101512,-0.0454488 -0.101512,-0.101512 0,-0.056063 0.0454528,-0.101512 0.101512,-0.101512l2.86824 0c0.0560591,0 0.101512,0.0454488 0.101512,0.101512 0,0.056063 -0.0454528,0.101512 -0.101512,0.101512zm-0.171835 -0.541925l-2.69641 0c-0.0560591,0 -0.101512,-0.0454488 -0.101512,-0.101512 0,-0.0560591 0.0454528,-0.101512 0.101512,-0.101512l2.69641 0c0.0560591,0 0.101512,0.0454528 0.101512,0.101512 0,0.056063 -0.0454528,0.101512 -0.101512,0.101512zm1.3326 -0.845937l-4.71395 0 0 3.1014 2.35592 0c0.00076378,-7.87402e-006 0.0015315,-7.87402e-006 0.00229528,0l2.35574 0 0 -3.1014z"/></g><rect class="fil2"/></svg>
