<?xml version="1.0" encoding="utf-8"?>
<!-- Generator: Adobe Illustrator 21.1.0, SVG Export Plug-In . SVG Version: 6.00 Build 0)  -->
<svg version="1.1" id="Layer_1" xmlns="http://www.w3.org/2000/svg" xmlns:xlink="http://www.w3.org/1999/xlink" x="0px" y="0px"
	 viewBox="0 0 512 512" style="enable-background:new 0 0 512 512;" xml:space="preserve">
<style type="text/css">
	.st0{fill:none;}
	.st1{fill:#2196F3;}
</style>
<g>
	<rect class="st0" width="512" height="512"/>
	<path class="st1" d="M411,347.8c-20.8-12.7-71-29.5-106.3-50.2c-3.3-3.3-5-7.8-6-12.8c58.9-9.3,69.3-36.8,69.3-36.8
		c-32-35.3-8.1-49.5-4.6-79.2c4.8-41.5-3.5-76.8-32.1-105.7c-18.2-18.4-46.9-31.8-74.9-31.1c-21.2,0.5-43.5,4.6-49.3,23.3
		c-43,12-63.1,56.5-61.2,94.8c2.4,48.6,30.1,62.6-1.9,98c0,0,10.9,27.2,69.4,36.7c-1,5-2.8,9.6-6.1,12.9
		c-35.3,20.7-85.5,37.4-106.3,50.2C74.5,364,64,380.1,64,416v16c0,19.8,15.3,48,47.3,48H256h144.7c32,0,47.3-28.2,47.3-48v-16
		C448,380.1,437.5,364,411,347.8z"/>
</g>
</svg>
