<?xml version="1.0" encoding="utf-8"?>
<!-- Generator: Adobe Illustrator 21.1.0, SVG Export Plug-In . SVG Version: 6.00 Build 0)  -->
<svg version="1.1" id="Layer_1" xmlns="http://www.w3.org/2000/svg" width="18px" height="18px" x="0px" y="0px"
	 viewBox="0 0 18 18" style="enable-background:new 0 0 18 18;" xml:space="preserve">
<style type="text/css">
	.st0{fill:#1976D2;}
</style>
<path class="st0" d="M9,12.3c-0.3,0.4-0.9,0.4-1.3,0.1l0,0c-0.4-0.3-0.5-0.9-0.1-1.3l4.7-5.7C12.6,5,13.2,5,13.6,5.3l0,0
	C14,5.6,14,6.2,13.7,6.6L9,12.3z"/>
<path class="st0" d="M8.8,11.3c0.3,0.4,0.3,1-0.1,1.3l0,0c-0.4,0.3-1,0.3-1.3-0.1L5,9.6c-0.3-0.4-0.3-1,0.1-1.3l0,0
	c0.4-0.3,1-0.3,1.3,0.1L8.8,11.3z"/>
</svg>
