<?xml version="1.0" encoding="utf-8"?>
<!-- Generator: Adobe Illustrator 21.1.0, SVG Export Plug-In . SVG Version: 6.00 Build 0)  -->
<svg version="1.1" id="Layer_1" xmlns="http://www.w3.org/2000/svg" xmlns:xlink="http://www.w3.org/1999/xlink" x="0px" y="0px"
	 viewBox="0 0 32 32" style="enable-background:new 0 0 32 32;" xml:space="preserve">
<style type="text/css">
	.st0{fill:#FFFFFF;}
</style>
<path class="st0" d="M17.1,21.7c-0.1,0.1-0.2,0.1-0.4,0.2c-0.1,0-0.2,0.1-0.3,0.1c-0.1,0-0.3,0-0.4,0s-0.2,0-0.4,0
	c-0.1,0-0.2-0.1-0.4-0.1c-0.1-0.1-0.2-0.1-0.4-0.2c0,0-0.1,0-0.1-0.1L0,10.3V26c0,1.1,0.9,2,2,2h28c1.1,0,2-0.9,2-2V10.5L17.2,21.6
	C17.2,21.6,17.1,21.6,17.1,21.7z"/>
<path class="st0" d="M32,6c0-1.1-0.9-2-2-2H2C0.9,4,0,4.9,0,6l16,12.3L32,6z"/>
</svg>
