<?xml version="1.0" encoding="utf-8"?>
<!-- Generator: Adobe Illustrator 21.1.0, SVG Export Plug-In . SVG Version: 6.00 Build 0)  -->
<svg version="1.1" id="Layer_1" xmlns="http://www.w3.org/2000/svg" xmlns:xlink="http://www.w3.org/1999/xlink" x="0px" y="0px"
	 viewBox="0 0 24 24" style="enable-background:new 0 0 24 24;" xml:space="preserve">
<style type="text/css">
	.st0{fill:#FFFFFF;}
</style>
<title></title>
<path class="st0" d="M0,12c0,6.6,5.4,12,12,12s12-5.4,12-12S18.6,0,12,0S0,5.4,0,12z M8,10.5C8,10.2,8.2,10,8.5,10
	C9.3,10,10,9.3,10,8.5C10,8.2,10.2,8,10.5,8C11.3,8,12,7.3,12,6.5V1c2,0,4,0.6,5.7,1.6l-1.1,1.1c-0.8,0.7-0.8,1.9,0,2.7
	C16.9,6.8,17.4,7,17.9,7c0.2,0,0.5,0.1,0.6,0.3l2.2,2.2c0.2,0.2,0.3,0.4,0.3,0.6v2c0,0.3,0.1,0.7,0.2,0.9l1.2,2.2
	c-1,3.2-3.4,5.8-6.5,7v-0.3c0-0.1,0.1-0.3,0.1-0.4l1.4-1.4c0.3-0.3,0.4-0.7,0.4-1.1v-2.6c0-0.8-0.7-1.5-1.5-1.5h-4.6
	c-0.1,0-0.3-0.1-0.4-0.1l-3.4-3.4C8.1,11.3,8,11.2,8,11.1V10.5z M5.7,13.4L6.3,14c0.9,0.9,1.1,2.3,0.3,3.4C6.2,18,6,18.7,6,19.5v0.1
	c0,0.7,0.2,1.3,0.5,1.9l0,0C3.1,19.6,1,15.9,1,12c0-0.3,0-0.7,0.1-1l0.7,0.6c0.3,0.3,0.7,0.5,1.1,0.6l1.7,0.6
	C5,12.9,5.4,13.1,5.7,13.4z"/>
</svg>
