<?xml version="1.0" encoding="utf-8"?>
<!-- Generator: Adobe Illustrator 21.1.0, SVG Export Plug-In . SVG Version: 6.00 Build 0)  -->
<svg version="1.1" id="Layer_1" xmlns="http://www.w3.org/2000/svg" xmlns:xlink="http://www.w3.org/1999/xlink" x="0px" y="0px"
	 viewBox="0 0 33.8 32" style="enable-background:new 0 0 33.8 32;" xml:space="preserve">
<style type="text/css">
	.st0{fill:#2196F3;}
</style>
<path class="st0" d="M33,14.2L25,6.1c-1.3-1.3-2.6-1.9-4.5-1.9L2.7,4.1C1.1,4.1-0.1,5.3,0,6.7v18.5C0,26.8,1.2,28,2.7,28l18.1,0.1
	c2,0,4-2.1,4.5-2.5l7.6-7.6C34,16.9,34.1,15.2,33,14.2z M20,18.1c-1.2-1.2-1.2-3,0-4.2s3-1.2,4.2,0s1.2,3,0,4.2S21.1,19.3,20,18.1z"
	/>
</svg>
