<?xml version="1.0" encoding="utf-8"?>
<!-- Generator: Adobe Illustrator 21.1.0, SVG Export Plug-In . SVG Version: 6.00 Build 0)  -->
<svg version="1.1" id="Layer_1" xmlns="http://www.w3.org/2000/svg" xmlns:xlink="http://www.w3.org/1999/xlink" x="0px" y="0px"
     width="92px" height="92px"
	 viewBox="0 0 58 80" style="enable-background:new 0 0 58 80;" xml:space="preserve">
<style type="text/css">
	.st0{fill:none;}
	.st1{opacity:0.6;fill:#FFADAD;stroke:#AB4D4D;stroke-width:2;enable-background:new    ;}
	.st2{fill:none;stroke:#AB4D4D;stroke-width:10;}
	.st3{fill:#FFD955;stroke:#000000;stroke-width:0.7202;stroke-miterlimit:10;}
</style>
<g id="Layer_1_1_">
	<line class="st0" x1="28.8" y1="13.8" x2="28.8" y2="85.8"/>
	<line class="st0" x1="-7.2" y1="49.8" x2="64.8" y2="49.8"/>
</g>
<g id="Layer_2">
	<circle class="st1" cx="28.8" cy="49.8" r="26.3"/>
	<g>
		<path class="st2" d="M28.8,13.8"/>
		<path class="st2" d="M28.8,31.8"/>
		<path class="st2" d="M28.8,67.8"/>
	</g>
	<g>
		<path class="st2" d="M64.8,49.8"/>
		<path class="st2" d="M46.8,49.8"/>
		<path class="st2" d="M10.8,49.8"/>
		<path class="st2" d="M-7.2,49.8"/>
	</g>
</g>
<path class="st3" d="M33.4,2.8L33.4,2.8c-1.4-0.1-2.8,0.5-3.7,1.5c-0.9-1-2.3-1.6-3.7-1.5c-2.5,0-4.6,2.1-4.6,4.7l0,0c0,0,0,0,0,0.1
	c0,1.7,0.7,2.8,1.7,3.8c1.4,1.3,5.5,5.3,6.2,6.7c0.1,0.2,0.3,0.2,0.5,0.2c0.1,0,0.1-0.1,0.2-0.2c0.7-1.4,4.9-5.4,6.2-6.8
	c1.2-1,1.7-2,1.7-3.8C38.1,4.9,36.1,2.8,33.4,2.8L33.4,2.8L33.4,2.8z"/>
</svg>
