<?xml version="1.0" encoding="UTF-8" standalone="no"?>
<svg
   xmlns:dc="http://purl.org/dc/elements/1.1/"
   xmlns:cc="http://creativecommons.org/ns#"
   xmlns:rdf="http://www.w3.org/1999/02/22-rdf-syntax-ns#"
   xmlns:svg="http://www.w3.org/2000/svg"
   xmlns="http://www.w3.org/2000/svg"
   xmlns:sodipodi="http://sodipodi.sourceforge.net/DTD/sodipodi-0.dtd"
   xmlns:inkscape="http://www.inkscape.org/namespaces/inkscape"
   height="10px"
   id="Layer_1"
   style="enable-background:new 0 0 16 10;"
   version="1.1"
   viewBox="0 0 16 10"
   width="16px"
   xml:space="preserve"
   sodipodi:docname="menu-icon.svg"
   inkscape:version="0.92.4 (5da689c313, 2019-01-14)"><metadata
     id="metadata50"><rdf:RDF><cc:Work
         rdf:about=""><dc:format>image/svg+xml</dc:format><dc:type
           rdf:resource="http://purl.org/dc/dcmitype/StillImage" /></cc:Work></rdf:RDF></metadata><defs
     id="defs48" /><sodipodi:namedview
     pagecolor="#ffffff"
     bordercolor="#666666"
     borderopacity="1"
     objecttolerance="10"
     gridtolerance="10"
     guidetolerance="10"
     inkscape:pageopacity="0"
     inkscape:pageshadow="2"
     inkscape:window-width="1920"
     inkscape:window-height="1013"
     id="namedview46"
     showgrid="false"
     inkscape:zoom="22.625"
     inkscape:cx="8"
     inkscape:cy="5"
     inkscape:window-x="-9"
     inkscape:window-y="-9"
     inkscape:window-maximized="1"
     inkscape:current-layer="Layer_1" /><g
     id="Menu_List_3"
     style="fill:#fffffe;fill-opacity:1"><path
       d="M1.5,0h-1C0.224,0,0,0.224,0,0.5v1C0,1.776,0.224,2,0.5,2h1   C1.776,2,2,1.776,2,1.5v-1C2,0.224,1.776,0,1.5,0z"
       style="fill-rule:evenodd;clip-rule:evenodd;fill:#fffffe;fill-opacity:1"
       id="path2" /><path
       d="M15.5,0h-12C3.224,0,3,0.224,3,0.5v1C3,1.776,3.224,2,3.5,2h12   C15.776,2,16,1.776,16,1.5v-1C16,0.224,15.776,0,15.5,0z"
       style="fill-rule:evenodd;clip-rule:evenodd;fill:#fffffe;fill-opacity:1"
       id="path4" /><path
       d="M1.5,4h-1C0.224,4,0,4.224,0,4.5v1C0,5.776,0.224,6,0.5,6h1   C1.776,6,2,5.776,2,5.5v-1C2,4.224,1.776,4,1.5,4z"
       style="fill-rule:evenodd;clip-rule:evenodd;fill:#fffffe;fill-opacity:1"
       id="path6" /><path
       d="M15.5,4h-12C3.224,4,3,4.224,3,4.5v1C3,5.776,3.224,6,3.5,6h12   C15.776,6,16,5.776,16,5.5v-1C16,4.224,15.776,4,15.5,4z"
       style="fill-rule:evenodd;clip-rule:evenodd;fill:#fffffe;fill-opacity:1"
       id="path8" /><path
       d="M1.5,8h-1C0.224,8,0,8.224,0,8.5v1C0,9.776,0.224,10,0.5,10h1   C1.776,10,2,9.776,2,9.5v-1C2,8.224,1.776,8,1.5,8z"
       style="fill-rule:evenodd;clip-rule:evenodd;fill:#fffffe;fill-opacity:1"
       id="path10" /><path
       d="M15.5,8h-12C3.224,8,3,8.224,3,8.5v1C3,9.776,3.224,10,3.5,10h12   c0.276,0,0.5-0.224,0.5-0.5v-1C16,8.224,15.776,8,15.5,8z"
       style="fill-rule:evenodd;clip-rule:evenodd;fill:#fffffe;fill-opacity:1"
       id="path12" /></g><g
     id="g15" /><g
     id="g17" /><g
     id="g19" /><g
     id="g21" /><g
     id="g23" /><g
     id="g25" /><g
     id="g27" /><g
     id="g29" /><g
     id="g31" /><g
     id="g33" /><g
     id="g35" /><g
     id="g37" /><g
     id="g39" /><g
     id="g41" /><g
     id="g43" /></svg>
