<?xml version="1.0" encoding="utf-8"?>
<!-- Generator: Adobe Illustrator 21.1.0, SVG Export Plug-In . SVG Version: 6.00 Build 0)  -->
<svg version="1.1" id="Layer_1" xmlns="http://www.w3.org/2000/svg" xmlns:xlink="http://www.w3.org/1999/xlink" x="0px" y="0px"
	 viewBox="0 0 512 512" style="enable-background:new 0 0 512 512;" xml:space="preserve">
<style type="text/css">
	.st0{fill:none;}
	.st1{fill:#2196F3;}
</style>
<g>
	<rect class="st0" width="64" height="64"/>
	<rect class="st0" width="64" height="64"/>
	<path class="st1" d="M474.2,53.8c-5.1-5.1-12.6-7.1-19.6-5.1L317.2,88c-5.7,1.6-9.8,6.7-10.2,12.7c-0.4,5.9,3,11.5,8.5,13.8
		l35.3,15.1C304.5,174,273.1,224,256,281.9c-17.1-58-48.5-107.9-94.8-152.3l35.3-15.1c5.5-2.3,8.9-7.9,8.5-13.8
		c-0.4-6-4.5-11-10.2-12.7L57.4,48.8c-7-2-14.5,0-19.6,5.1c-5.1,5.1-7,12.6-5.1,19.5L72,210.8c1.6,5.7,6.7,9.8,12.7,10.2
		c6,0.4,11.5-3,13.9-8.5l16.5-38.6C179.8,234.4,208,303.6,208,400v25.5c0,12.4,10.1,22.5,22.5,22.5h51.1c12.4,0,22.5-10.1,22.5-22.5
		V400c0-96.4,28.2-165.6,92.9-226.2l16.5,38.6c2.4,5.5,7.9,8.9,13.9,8.5c6-0.4,11-4.5,12.7-10.2l39.2-137.4
		C481.2,66.4,479.3,59,474.2,53.8z"/>
</g>
</svg>
