<?xml version="1.0" ?>
<svg height="24px" version="1.1" viewBox="0 0 60 45" width="24px" xmlns="http://www.w3.org/2000/svg"
     xmlns:sketch="http://www.bohemiancoding.com/sketch/ns" xmlns:xlink="http://www.w3.org/1999/xlink">
  <title/>
  <desc/>
  <defs/>
  <g fill="none" fill-rule="evenodd" id="Page-1" stroke="none" stroke-width="1">
    <g fill="#000000" id="cleaning-new-37" transform="translate(-1.000000, 0.000000)">
      <path d="M8,0 L53,0 L53,45 L8,45 L8,0 Z M10,43 L51,43 L51,2 L10,2 L10,43 Z" id="Fill-155"/>
      <path
        d="M3.002,38.001 C2.268,38.001 1.562,37.595 1.211,36.895 C0.717,35.907 1.118,34.705 2.106,34.211 L58.106,6.211 C59.092,5.718 60.294,6.117 60.789,7.105 C61.283,8.094 60.882,9.295 59.895,9.789 L3.895,37.789 C3.607,37.932 3.302,38.001 3.002,38.001"
        id="Fill-156"/>
      <path
        d="M58.999,39.001 C58.689,39.001 58.375,38.928 58.08,38.776 L2.08,9.776 C1.1,9.268 0.716,8.061 1.224,7.08 C1.732,6.099 2.939,5.717 3.92,6.224 L59.92,35.224 C60.9,35.732 61.284,36.939 60.776,37.92 C60.42,38.607 59.722,39.001 58.999,39.001"
        id="Fill-157"/>
    </g>
  </g>
</svg>
