<?xml version="1.0" encoding="utf-8"?>
<!-- Generator: Adobe Illustrator 21.1.0, SVG Export Plug-In . SVG Version: 6.00 Build 0)  -->
<svg version="1.1" id="Layer_1" xmlns="http://www.w3.org/2000/svg" xmlns:xlink="http://www.w3.org/1999/xlink" x="0px" y="0px"
	 viewBox="0 0 398 397" style="enable-background:new 0 0 398 397;" xml:space="preserve">
<style type="text/css">
	.st0{fill:#0082F3;}
	.st1{fill:#FFFFFE;}
	.st2{fill:none;}
</style>
<g id="Layer_x0020_1">
	<path class="st0" d="M200.8,13.4C99,13.4,16.4,96,16.4,197.8S99,382.1,200.8,382.1s184.3-82.5,184.3-184.3S302.6,13.4,200.8,13.4z"
		/>
	<path class="st1" d="M200.8,47.4c-83,0-150.4,67.3-150.4,150.4c0,83,67.3,150.4,150.4,150.4c83,0,150.4-67.3,150.4-150.4
		C351.1,114.7,283.8,47.4,200.8,47.4L200.8,47.4z"/>
	<path d="M144.1,284.2V111.4h65.2c11.5,0,20.2,0.6,26.3,1.6c8.5,1.4,15.6,4.1,21.4,8.1c5.7,3.9,10.3,9.5,13.8,16.7
		c3.5,7.2,5.2,15,5.2,23.6c0,14.7-4.7,27.2-14,37.3c-9.4,10.1-26.3,15.2-50.7,15.2H167v70.2L144.1,284.2L144.1,284.2z M167,193.5
		h44.7c14.8,0,25.3-2.7,31.5-8.2c6.2-5.5,9.3-13.2,9.3-23.2c0-7.2-1.8-13.4-5.5-18.6c-3.7-5.1-8.4-8.5-14.4-10.2
		c-3.9-1-10.9-1.5-21.3-1.5H167L167,193.5L167,193.5z"/>
</g>
<rect x="-45" y="-48" class="st2" width="491.5" height="491.5"/>
</svg>
