<?xml version="1.0" encoding="utf-8"?>
<!-- Generator: Adobe Illustrator 21.1.0, SVG Export Plug-In . SVG Version: 6.00 Build 0)  -->
<svg version="1.1" id="Layer_1" xmlns="http://www.w3.org/2000/svg" xmlns:xlink="http://www.w3.org/1999/xlink" x="0px" y="0px"
	 viewBox="0 0 100 100" style="enable-background:new 0 0 100 100;" xml:space="preserve">
<style type="text/css">
	.st0{fill:#FFFFFF;}
</style>
<g>
	<path class="st0" d="M87.4,78.6l-0.5-1.1c-1.5-3.5-20-9-21.5-9.1l-1.2,0.1c-2.5,0.5-5.3,2.9-11.1,8.1c-6.6-3-15.5-11.1-19.8-15.9
		C28.7,55.5,23,46.8,20.9,40.3c6.6-5.9,9.4-8.4,9.6-11.3c0.1-1.5-3.1-20.5-6.4-22.4L23,6c-2.1-1.4-5.3-3.4-8.9-2.7
		c-0.9,0.2-1.7,0.5-2.5,1C9.3,5.8,3.4,9.9,0.7,15.2C-0.9,18.5-1.7,48.8,21,74.3c22.4,25.3,50,26.4,54.1,25.5h0.1l0.4-0.1
		c5.6-2,10.3-7.3,12.1-9.5C91,86.1,88.7,81.2,87.4,78.6"/>
</g>
</svg>
