<?xml version="1.0" ?><!DOCTYPE svg  PUBLIC '-//W3C//DTD SVG 1.1//EN'  'http://www.w3.org/Graphics/SVG/1.1/DTD/svg11.dtd'><svg enable-background="new 0 0 48 48" id="Layer_1" version="1.1" viewBox="0 0 48 48" xml:space="preserve" xmlns="http://www.w3.org/2000/svg" xmlns:xlink="http://www.w3.org/1999/xlink"><g><path d="M31.5,36c-0.4,5.2-3.8,9.1-7.5,9.1s-7.1-3.8-7.5-9.1C16,30.1,19.4,24.7,24,24.7S32,30.1,31.5,36z" fill="#F3F3F3"/><path d="M31.5,34.1c-7.3,0-11.8-1.9-14.3-3.5c0.4-1.2,1-2.3,1.7-3.1l8.4-1.7C29.7,27.2,31.3,30.4,31.5,34.1z" fill="#CED6E0"/><path d="M35.6,18.4c2.9-4.8,4.6-17.3,0.9-18.4c-5.3,0.9-8,9.9-8.6,12.4C31.1,13.3,33.9,15.5,35.6,18.4z" fill="#FFD15C"/><path d="M34.2,16.5l0.3-0.8c1.1-2.7,2-7,1.9-10.5c0-1.5-0.3-2.4-0.5-2.8c-2.8,1.2-4.7,6.1-5.7,9.3l-0.5,1.5   C31.5,13.9,33,15.1,34.2,16.5z" fill="#F7B64C"/><path d="M16.5,14.3c1.1-0.8,2.4-1.3,3.6-1.7C19.7,10.6,17.1,0.9,11.5,0c-3.7,1.1-1.9,13.8,1,18.5   C13.5,16.9,14.8,15.5,16.5,14.3z" fill="#FFD15C"/><path d="M13.9,16.6c0.7-0.9,1.6-1.6,2.7-2.3c0.6-0.4,1.1-0.7,1.7-1l-0.6-1.7c-0.9-3.2-2.9-8.1-5.7-9.3   c-0.2,0.4-0.4,1.3-0.5,2.8c-0.1,3.5,0.8,7.8,1.9,10.5L13.9,16.6z" fill="#F7B64C"/><path d="M32.7,36.7c0.3,0.9,0.5,1.8,0.9,2.7c0.4,0.8,1,1.6,1.8,2c0.3,0.1,0.6,0.3,0.8,0.5c0.2,0.2,0.4,0.5,0.4,0.8   c0.1,0.9-0.5,1.9-1.3,2.3c-0.8,0.4-1.9,0.4-2.7,0.1c-0.6-0.2-1.2-0.6-1.6-1.1c-0.6-0.9-0.6-2-0.6-3c0-1.5,0-3,0-4.4" fill="#F7B64C"/><path d="M15.3,36.7c-0.3,0.9-0.5,1.8-0.9,2.7c-0.4,0.8-1,1.6-1.8,2c-0.3,0.1-0.6,0.3-0.8,0.5   c-0.2,0.2-0.4,0.5-0.4,0.8c-0.1,0.9,0.5,1.9,1.3,2.3c0.8,0.4,1.9,0.4,2.7,0.1c0.6-0.2,1.2-0.6,1.6-1.1c0.6-0.9,0.6-2,0.6-3   c0-1.5,0-3,0-4.4" fill="#F7B64C"/><path d="M18.6,30.6l0,0.2C18.6,30.7,18.6,30.6,18.6,30.6z" fill="#344A5E"/><path d="M19.4,47.9c-3.5-0.3-3.6-3.2-3.6-3.2S13.3,30.9,17,29.6l1.6-0.5l0,1.6v0c-0.1,1-0.1,5.6,3.3,10.3   c0.8,1.1,1.3,2.4,1.1,3.8C22.8,46.4,21.9,48.1,19.4,47.9z" fill="#FFD15C"/><path d="M28.6,47.9c3.6-0.6,3.6-3.2,3.6-3.2s2.5-13.9-1.3-15.1l-1.6-0.5l0,1.6v0c0.1,1,0.1,5.6-3.3,10.3   c-0.8,1.1-1.3,2.4-1.1,3.8C25.2,46.4,26.1,48.4,28.6,47.9z" fill="#FFD15C"/><path d="M18.6,29.2l0,1.6v0c0,0.1,0,0.3,0,0.6c-0.9-0.5-1.6-0.9-2.2-1.4c0.2-0.2,0.4-0.3,0.6-0.4L18.6,29.2z" fill="#F7B64C"/><path d="M33,34.1c-1.4,0.1-2.6,0-3.8,0c0.3-1.6,0.3-2.8,0.2-3.3v0l0-1.6l1.6,0.5C32.2,30,32.8,31.8,33,34.1z" fill="#F7B64C"/><ellipse cx="24" cy="21.1" fill="#FFD15C" rx="13.3" ry="10.6"/><ellipse cx="24.3" cy="27.4" fill="#415A6B" rx="4.1" ry="3.2"/><path d="M25.7,27c0,0.8-1.4,1.4-1.4,1.4s-1.5-0.6-1.5-1.4s0.6-0.9,1.4-0.9S25.7,26.2,25.7,27z" fill="#344A5E"/><g><path d="M25.1,29.9c-0.5,0-1-0.4-1-1v-1.7c0-0.1,0.1-0.2,0.2-0.2s0.2,0.1,0.2,0.2v1.7c0,0.4,0.3,0.6,0.6,0.6    c0.3,0,0.5-0.2,0.6-0.4c0-0.1,0.1-0.1,0.2-0.1c0.1,0,0.1,0.1,0.1,0.2C25.9,29.7,25.5,29.9,25.1,29.9z" fill="#344A5E"/></g><g><path d="M23.5,29.9c-0.4,0-0.8-0.3-0.9-0.7c0-0.1,0-0.2,0.1-0.2c0.1,0,0.2,0,0.2,0.1c0.1,0.3,0.3,0.4,0.6,0.4    c0.4,0,0.6-0.3,0.6-0.6v-1.7c0-0.1,0.1-0.2,0.2-0.2s0.2,0.1,0.2,0.2v1.7C24.5,29.5,24,29.9,23.5,29.9z" fill="#344A5E"/></g><circle cx="28.9" cy="20.3" fill="#F7B64C" r="3"/><circle cx="28.6" cy="20.3" fill="#344A5E" r="2.1"/><ellipse cx="28.8" cy="18.8" fill="#FFFFFF" rx="0.6" ry="0.4"/><circle cx="19.1" cy="20.3" fill="#F7B64C" r="2.9"/><circle cx="19.4" cy="20.3" fill="#344A5E" r="2.1"/><ellipse cx="19.2" cy="18.8" fill="#FFFFFF" rx="0.6" ry="0.4"/></g></svg>