<?xml version="1.0" encoding="utf-8"?>
<!-- Generator: Adobe Illustrator 21.1.0, SVG Export Plug-In . SVG Version: 6.00 Build 0)  -->
<svg version="1.1" id="Layer_1" xmlns="http://www.w3.org/2000/svg" xmlns:xlink="http://www.w3.org/1999/xlink" x="0px" y="0px"
	 viewBox="0 0 268.7 391.1" style="enable-background:new 0 0 268.7 391.1;" xml:space="preserve">
<style type="text/css">
	.st0{fill:#1968C0;}
</style>
<g>
	<path class="st0" d="M131.6,130.5c1.8,0,3.8,0,5.6,0c13.8,1.3,23.2,10.1,23.2,22.5c0,4.3,3.8,8.1,8.1,8.1c4.3,0,6.8-3.8,6.8-8.1
		c0-19.4-9.4-34.4-34.4-37.6v-12.6c0-4.3-1.8-8.1-6.3-8.1c-4.3,0-6.3,3.8-6.3,8.1v12.6c-18.7,3.8-34.4,20.7-34.4,40.6
		c0,20.7,14.4,33.8,37.6,35c1.8,0,3.1,0,6.3,0c10.6,0.6,22.5,4.3,22.5,19.4c0,13.1-10.1,24.4-23.2,25.7c-1.8,0-3.8,0-5.6,0
		c-13.8-1.3-23.2-10.1-23.2-22.5c0-4.3-3.8-8.1-8.1-8.1c-4.3,0-6.8,3.8-6.8,8.1c0,19.4,15.6,34.4,34.4,37.6v12.6
		c0,4.3,1.8,8.1,6.3,8.1c4.3,0,6.3-3.8,6.3-8.1v-12.6c18.7-3.8,34.4-20.7,34.4-40.6c0-20.7-14.4-33.8-37.6-35c-1.8,0-3.1,0-6.3,0
		c-10.6-0.6-22.5-4.3-22.5-19.4C108.4,143.1,118.4,131.8,131.6,130.5z"/>
	<path class="st0" d="M247.7,5.4H21.1C9.9,5.4,0,14.8,0,26v350.3c0,9.9,6.3,13.9,11.6,13.9c3.1,0,6.7-1.3,9.9-4l13.9-11.6
		c3.1-2.7,8.5-2.2,11.2,0.4l11.6,10.8c4,3.6,9,5.4,14.3,5.4s10.8-1.8,14.3-5.4L98.4,375c2.7-2.2,7.2-2.2,9.4,0.4l8.1,9
		c3.6,4,9,6.7,14.8,6.7c4.9,0,9.9-1.8,13.9-5.4l11.2-10.3c2.7-2.7,7.6-2.7,10.3,0l10.8,10.3c4,4,9.4,5.8,15.2,5.8
		c4.9,0,9.9-1.8,13.9-4.9l14.3-12.1c3.1-2.7,9-2.7,12.1,0l14.3,11.6c3.1,2.7,6.7,4,9.9,4c3.6,0,7.2-1.8,9.4-4.9
		c1.8-2.2,2.7-5.4,2.7-9.4V26C268.8,14.8,258.9,5.4,247.7,5.4z M255.4,375.4l-13.9-11.2c-4-3.1-9.4-4.9-14.8-4.9
		c-5.4,0-10.8,1.8-14.8,4.9l-14.8,12.1c-3.1,2.2-8.5,2.2-11.2-0.4l-10.8-10.3c-4-3.6-9-5.8-14.3-5.8s-10.3,1.8-14.3,5.8l-11.2,10.3
		c-2.7,2.2-6.7,2.2-9-0.4l-8.1-9c-3.6-4-9.4-6.7-14.8-6.7c-4.9,0-9.9,1.8-13.4,5.4l-11.6,10.7c-2.7,2.7-7.6,2.7-10.8,0L56,365.1
		c-4-3.6-9.4-5.8-14.8-5.8s-10.8,1.8-14.3,4.9l-13.5,11.2V26c0-3.6,3.6-7.2,7.6-7.2h227.1c3.6,0,7.6,3.6,7.6,7.2v349.4H255.4z"/>
</g>
</svg>
