<?xml version="1.0" encoding="utf-8"?>
<!-- Generator: Adobe Illustrator 21.1.0, SVG Export Plug-In . SVG Version: 6.00 Build 0)  -->
<svg version="1.1" id="Icons" xmlns="http://www.w3.org/2000/svg" xmlns:xlink="http://www.w3.org/1999/xlink" x="0px" y="0px"
	 viewBox="0 0 30.1 30" style="enable-background:new 0 0 30.1 30;" xml:space="preserve">
<style type="text/css">
	.st0{fill:#0082F3;}
</style>
<path class="st0" d="M8.9,29.7C9.1,29.9,9.3,30,9.6,30s0.5-0.1,0.7-0.3L16,24c1.9-1.9,2-5.1,0.1-7.1l0,0c0,0,0,0-0.1-0.1l0,0
	l-0.7-0.7l9.5-9.5c0.6,0.4,1.3,0.6,2.1,0.6C28,7.2,29,6.8,29.8,6c0.4-0.4,0.4-1,0-1.4l-4.3-4.3c-0.4-0.4-1-0.4-1.4,0
	c-0.8,0.8-1.2,1.8-1.2,2.9c0,0.7,0.2,1.4,0.6,2.1L14,14.8l-0.7-0.7c-1-1-2.2-1.5-3.6-1.5S7,13,6,13.9l-5.7,5.7
	C0.1,19.9,0,20.1,0,20.4s0.1,0.5,0.3,0.7L8.9,29.7z M24.9,2.6l2.5,2.5c-0.7,0.2-1.5,0-2-0.5c-0.4-0.4-0.6-0.9-0.6-1.4
	C24.8,3,24.8,2.8,24.9,2.6z M12.3,15.9l0.9,0.9l0,0l0,0l0.9,0.9L12,19c-0.3,0.2-0.7,0.2-1-0.1c-0.3-0.3-0.3-0.7-0.1-1L12.3,15.9z
	 M7.5,15.3c1.1-1.1,3-1.1,4.2-0.1l-1.5,2.2c-0.5,0.7-0.4,1.6,0.2,2.2c0.3,0.3,0.8,0.5,1.3,0.5c0.3,0,0.7-0.1,1-0.3l2.2-1.5
	c1,1.2,1,3-0.1,4.2l-5,5l-7.2-7.2L7.5,15.3z"/>
</svg>
