<?xml version="1.0" ?><svg height="18px" version="1.1" viewBox="0 0 18 18" width="18px" xmlns="http://www.w3.org/2000/svg" xmlns:xlink="http://www.w3.org/1999/xlink"><title/><desc/><defs/><g fill="none" fill-rule="evenodd" id="Page-1" stroke="none" stroke-width="1"><g fill="#000000" fill-rule="nonzero" id="Washing-Machine"><g id="Combined-Shape" transform="translate(1.000000, 0.000000)"><path d="M2,4 L14,4 C15.1045695,4 16,4.8954305 16,6 L16,16 C16,17.1045695 15.1045695,18 14,18 L2,18 C0.8954305,18 1.3527075e-16,17.1045695 0,16 L0,6 C-1.3527075e-16,4.8954305 0.8954305,4 2,4 Z M2,5 C1.44771525,5 1,5.44771525 1,6 L1,16 C1,16.5522847 1.44771525,17 2,17 L14,17 C14.5522847,17 15,16.5522847 15,16 L15,6 C15,5.44771525 14.5522847,5 14,5 L2,5 Z M1,0 L15,0 C15.5522847,-1.01453063e-16 16,0.44771525 16,1 L16,2 C16,2.55228475 15.5522847,3 15,3 L1,3 C0.44771525,3 6.76353751e-17,2.55228475 0,2 L0,1 C-6.76353751e-17,0.44771525 0.44771525,1.01453063e-16 1,0 Z M1,1 L1,2 L15,2 L15,1 L1,1 Z M8,15.5 C6.06700338,15.5 4.5,13.9329966 4.5,12 C4.5,10.0670034 6.06700338,8.5 8,8.5 C9.93299662,8.5 11.5,10.0670034 11.5,12 C11.5,13.9329966 9.93299662,15.5 8,15.5 Z M8,14.5 C9.38071187,14.5 10.5,13.3807119 10.5,12 C10.5,10.6192881 9.38071187,9.5 8,9.5 C6.61928813,9.5 5.5,10.6192881 5.5,12 C5.5,13.3807119 6.61928813,14.5 8,14.5 Z M2.5,6 L4.5,6 C4.77614237,6 5,6.22385763 5,6.5 C5,6.77614237 4.77614237,7 4.5,7 L2.5,7 C2.22385763,7 2,6.77614237 2,6.5 C2,6.22385763 2.22385763,6 2.5,6 Z M12.5,6 L13.5,6 C13.7761424,6 14,6.22385763 14,6.5 C14,6.77614237 13.7761424,7 13.5,7 L12.5,7 C12.2238576,7 12,6.77614237 12,6.5 C12,6.22385763 12.2238576,6 12.5,6 Z"/></g></g></g></svg>