<?xml version="1.0" encoding="utf-8"?>
<!-- Generator: Adobe Illustrator 21.1.0, SVG Export Plug-In . SVG Version: 6.00 Build 0)  -->
<svg version="1.1" id="_x2014_ÎÓÈ_x5F_1" xmlns="http://www.w3.org/2000/svg" xmlns:xlink="http://www.w3.org/1999/xlink"
	 x="0px" y="0px" viewBox="0 0 700 700" style="enable-background:new 0 0 700 700;" xml:space="preserve">
<style type="text/css">
	.st0{opacity:0.36;clip-path:url(#SVGID_2_);}
	.st1{fill:#42ACD8;}
	.st2{opacity:0.46;clip-path:url(#SVGID_2_);}
	.st3{fill:#42AAD5;}
	.st4{clip-path:url(#SVGID_2_);}
	.st5{fill:#23A4DA;}
	.st6{clip-path:url(#SVGID_2_);fill:#239DD1;}
	.st7{clip-path:url(#SVGID_2_);fill:#258FBA;}
	.st8{clip-path:url(#SVGID_2_);fill:#2497C7;}
	.st9{clip-path:url(#SVGID_2_);fill:#258EB9;}
	.st10{fill:#3FBAEE;}
	.st11{fill:#258FBA;}
	.st12{fill:#2B9CCC;}
	.st13{fill:#23A2D9;}
	.st14{opacity:0.38;}
	.st15{fill:#34AFE3;}
	.st16{fill:#249BCD;}
	.st17{fill:#22A9E1;}
	.st18{fill:#3FB4E5;}
	.st19{fill:#FFFFFF;}
	.st20{fill:#C1E8FF;}
	.st21{fill:#BADF4C;}
	.st22{fill:#9AD447;}
	.st23{fill:#68C53E;}
	.st24{fill:#B98D67;}
	.st25{fill:#A77E5C;}
	.st26{fill:#FFCB00;}
	.st27{fill:#FF9A00;}
	.st28{fill:#DF5900;}
</style>
<g>
	<g>
		<g>
			<defs>
				<rect id="SVGID_1_" x="0" y="0" width="700" height="700"/>
			</defs>
			<clipPath id="SVGID_2_">
				<use xlink:href="#SVGID_1_"  style="overflow:visible;"/>
			</clipPath>
			<g class="st0">
				<rect x="542.1" y="331.9" class="st1" width="131.5" height="536.3"/>
			</g>
			<g class="st2">
				<rect x="1.8" y="414.6" class="st3" width="143.4" height="429.1"/>
			</g>
			<g class="st4">
				<rect x="253.2" y="392" class="st5" width="86.7" height="429.1"/>
			</g>
			<rect x="26.3" y="392.8" class="st6" width="117.8" height="488.3"/>
			<rect x="441.1" y="386.5" class="st7" width="101.7" height="488.3"/>
			<rect x="513.1" y="309.9" class="st8" width="101.7" height="488.3"/>
			<rect x="594.3" y="437.7" class="st9" width="151.6" height="488.3"/>
			<rect x="639.1" y="388.8" class="st9" width="151.6" height="488.3"/>
			<rect x="-3.9" y="517.3" class="st7" width="151.6" height="332.8"/>
			<g class="st4">
				<g>
					<rect x="81.5" y="421.2" class="st5" width="185.7" height="429.1"/>
				</g>
				<g>
					<g>
						<rect x="96" y="439.9" class="st10" width="26.7" height="60.2"/>
						<rect x="130.3" y="439.9" class="st10" width="26.7" height="60.2"/>
						<rect x="164.6" y="439.9" class="st10" width="26.7" height="60.2"/>
						<rect x="198.8" y="439.9" class="st10" width="26.7" height="60.2"/>
						<rect x="233.1" y="439.9" class="st10" width="26.7" height="60.2"/>
					</g>
					<g>
						<rect x="96" y="506.3" class="st10" width="26.7" height="60.2"/>
						<rect x="130.3" y="506.3" class="st10" width="26.7" height="60.2"/>
						<rect x="164.6" y="506.3" class="st10" width="26.7" height="60.2"/>
						<rect x="198.8" y="506.3" class="st10" width="26.7" height="60.2"/>
						<rect x="233.1" y="506.3" class="st10" width="26.7" height="60.2"/>
					</g>
					<g>
						<rect x="96" y="572.8" class="st10" width="26.7" height="60.2"/>
						<rect x="130.3" y="572.8" class="st10" width="26.7" height="60.2"/>
						<rect x="164.6" y="572.8" class="st10" width="26.7" height="60.2"/>
						<rect x="198.8" y="572.8" class="st10" width="26.7" height="60.2"/>
						<rect x="233.1" y="572.8" class="st10" width="26.7" height="60.2"/>
					</g>
					<g>
						<rect x="96" y="639.2" class="st10" width="26.7" height="60.2"/>
						<rect x="130.3" y="639.2" class="st10" width="26.7" height="60.2"/>
						<rect x="164.6" y="639.2" class="st10" width="26.7" height="60.2"/>
						<rect x="198.8" y="639.2" class="st10" width="26.7" height="60.2"/>
						<rect x="233.1" y="639.2" class="st10" width="26.7" height="60.2"/>
					</g>
					<g>
						<rect x="96" y="705.7" class="st10" width="26.7" height="60.2"/>
						<rect x="130.3" y="705.7" class="st10" width="26.7" height="60.2"/>
						<rect x="164.6" y="705.7" class="st10" width="26.7" height="60.2"/>
						<rect x="198.8" y="705.7" class="st10" width="26.7" height="60.2"/>
						<rect x="233.1" y="705.7" class="st10" width="26.7" height="60.2"/>
					</g>
					<g>
						<rect x="96" y="772.1" class="st10" width="26.7" height="60.2"/>
						<rect x="130.3" y="772.1" class="st10" width="26.7" height="60.2"/>
						<rect x="164.6" y="772.1" class="st10" width="26.7" height="60.2"/>
						<rect x="198.8" y="772.1" class="st10" width="26.7" height="60.2"/>
						<rect x="233.1" y="772.1" class="st10" width="26.7" height="60.2"/>
					</g>
					<g>
						<rect x="96" y="838.6" class="st10" width="26.7" height="11.5"/>
						<rect x="130.3" y="838.6" class="st10" width="26.7" height="11.5"/>
						<rect x="164.6" y="838.6" class="st10" width="26.7" height="11.5"/>
						<rect x="198.8" y="838.6" class="st10" width="26.7" height="11.5"/>
						<rect x="233.1" y="838.6" class="st10" width="26.7" height="11.5"/>
					</g>
				</g>
			</g>
			<g class="st4">
				<rect x="398.6" y="519.9" class="st11" width="95.2" height="227.3"/>
				<g>
					<rect x="356" y="504.7" class="st12" width="95.2" height="227.3"/>
				</g>
				<rect x="364.2" y="519.4" class="st13" width="8.5" height="22.5"/>
				<rect x="381.8" y="519.4" class="st13" width="8.5" height="22.5"/>
				<rect x="399.4" y="519.4" class="st13" width="8.5" height="22.5"/>
				<rect x="416.9" y="519.4" class="st13" width="8.5" height="22.5"/>
				<rect x="434.5" y="519.4" class="st13" width="8.5" height="22.5"/>
				<rect x="364.2" y="554.6" class="st13" width="8.5" height="22.5"/>
				<rect x="381.8" y="554.6" class="st13" width="8.5" height="22.5"/>
				<rect x="399.4" y="554.6" class="st13" width="8.5" height="22.5"/>
				<rect x="416.9" y="554.6" class="st13" width="8.5" height="22.5"/>
				<rect x="434.5" y="554.6" class="st13" width="8.5" height="22.5"/>
				<rect x="364.2" y="589.8" class="st13" width="8.5" height="22.5"/>
				<rect x="381.8" y="589.8" class="st13" width="8.5" height="22.5"/>
				<rect x="399.4" y="589.8" class="st13" width="8.5" height="22.5"/>
				<rect x="416.9" y="589.8" class="st13" width="8.5" height="22.5"/>
				<rect x="434.5" y="589.8" class="st13" width="8.5" height="22.5"/>
				<rect x="364.2" y="625" class="st13" width="8.5" height="22.5"/>
				<rect x="381.8" y="625" class="st13" width="8.5" height="22.5"/>
				<rect x="399.4" y="625" class="st13" width="8.5" height="22.5"/>
				<rect x="416.9" y="625" class="st13" width="8.5" height="22.5"/>
				<rect x="434.5" y="625" class="st13" width="8.5" height="22.5"/>
				<rect x="364.2" y="660.2" class="st13" width="8.5" height="22.5"/>
				<rect x="381.8" y="660.2" class="st13" width="8.5" height="22.5"/>
				<rect x="399.4" y="660.2" class="st13" width="8.5" height="22.5"/>
				<rect x="416.9" y="660.2" class="st13" width="8.5" height="22.5"/>
				<rect x="434.5" y="660.2" class="st13" width="8.5" height="22.5"/>
				<rect x="364.2" y="695.4" class="st13" width="8.5" height="22.5"/>
				<rect x="381.8" y="695.4" class="st13" width="8.5" height="22.5"/>
				<rect x="399.4" y="695.4" class="st13" width="8.5" height="22.5"/>
				<rect x="416.9" y="695.4" class="st13" width="8.5" height="22.5"/>
				<rect x="434.5" y="695.4" class="st13" width="8.5" height="22.5"/>
				<rect x="364.2" y="726.8" class="st13" width="8.5" height="4.3"/>
				<rect x="381.8" y="726.8" class="st13" width="8.5" height="4.3"/>
				<rect x="399.4" y="726.8" class="st13" width="8.5" height="4.3"/>
				<rect x="416.9" y="726.8" class="st13" width="8.5" height="4.3"/>
				<rect x="434.5" y="726.8" class="st13" width="8.5" height="4.3"/>
			</g>
			<g class="st4">
				<g>
					<rect x="213.1" y="392" class="st5" width="87.6" height="446.3"/>
				</g>
				<g class="st14">
					<rect x="256.5" y="359" class="st5" width="87.6" height="446.3"/>
				</g>
				<g>
					<rect x="170.2" y="500" class="st15" width="122.4" height="349.1"/>
				</g>
				<g>
					<rect x="178.9" y="511.7" class="st10" width="31.7" height="17.6"/>
					<rect x="215.5" y="511.7" class="st10" width="31.7" height="17.6"/>
					<rect x="252.1" y="511.7" class="st10" width="31.7" height="17.6"/>
				</g>
				<g>
					<rect x="178.9" y="535" class="st10" width="31.7" height="17.6"/>
					<rect x="215.5" y="535" class="st10" width="31.7" height="17.6"/>
					<rect x="252.1" y="535" class="st10" width="31.7" height="17.6"/>
				</g>
				<g>
					<rect x="178.9" y="558.4" class="st10" width="31.7" height="17.6"/>
					<rect x="215.5" y="558.4" class="st10" width="31.7" height="17.6"/>
					<rect x="252.1" y="558.4" class="st10" width="31.7" height="17.6"/>
				</g>
				<g>
					<rect x="178.9" y="581.8" class="st10" width="31.7" height="17.6"/>
					<rect x="215.5" y="581.8" class="st10" width="31.7" height="17.6"/>
					<rect x="252.1" y="581.8" class="st10" width="31.7" height="17.6"/>
				</g>
				<g>
					<rect x="178.9" y="605.2" class="st10" width="31.7" height="17.6"/>
					<rect x="215.5" y="605.2" class="st10" width="31.7" height="17.6"/>
					<rect x="252.1" y="605.2" class="st10" width="31.7" height="17.6"/>
				</g>
				<g>
					<rect x="178.9" y="628.6" class="st10" width="31.7" height="17.6"/>
					<rect x="215.5" y="628.6" class="st10" width="31.7" height="17.6"/>
					<rect x="252.1" y="628.6" class="st10" width="31.7" height="17.6"/>
				</g>
				<g>
					<rect x="178.9" y="652" class="st10" width="31.7" height="17.6"/>
					<rect x="215.5" y="652" class="st10" width="31.7" height="17.6"/>
					<rect x="252.1" y="652" class="st10" width="31.7" height="17.6"/>
				</g>
				<g>
					<rect x="178.9" y="675.4" class="st10" width="31.7" height="17.6"/>
					<rect x="215.5" y="675.4" class="st10" width="31.7" height="17.6"/>
					<rect x="252.1" y="675.4" class="st10" width="31.7" height="17.6"/>
				</g>
				<g>
					<rect x="178.9" y="698.8" class="st10" width="31.7" height="17.6"/>
					<rect x="215.5" y="698.8" class="st10" width="31.7" height="17.6"/>
					<rect x="252.1" y="698.8" class="st10" width="31.7" height="17.6"/>
				</g>
				<g>
					<rect x="178.9" y="722.2" class="st10" width="31.7" height="17.6"/>
					<rect x="215.5" y="722.2" class="st10" width="31.7" height="17.6"/>
					<rect x="252.1" y="722.2" class="st10" width="31.7" height="17.6"/>
				</g>
				<g>
					<rect x="178.9" y="745.6" class="st10" width="31.7" height="17.6"/>
					<rect x="215.5" y="745.6" class="st10" width="31.7" height="17.6"/>
					<rect x="252.1" y="745.6" class="st10" width="31.7" height="17.6"/>
				</g>
				<g>
					<rect x="178.9" y="769" class="st10" width="31.7" height="17.6"/>
					<rect x="215.5" y="769" class="st10" width="31.7" height="17.6"/>
					<rect x="252.1" y="769" class="st10" width="31.7" height="17.6"/>
				</g>
				<g>
					<rect x="178.9" y="792.4" class="st10" width="31.7" height="17.6"/>
					<rect x="215.5" y="792.4" class="st10" width="31.7" height="17.6"/>
					<rect x="252.1" y="792.4" class="st10" width="31.7" height="17.6"/>
				</g>
				<g>
					<rect x="178.9" y="815.8" class="st10" width="31.7" height="17.6"/>
					<rect x="215.5" y="815.8" class="st10" width="31.7" height="17.6"/>
					<rect x="252.1" y="815.8" class="st10" width="31.7" height="17.6"/>
				</g>
				<g>
					<rect x="178.9" y="839.2" class="st10" width="31.7" height="4.7"/>
					<rect x="215.5" y="839.2" class="st10" width="31.7" height="4.7"/>
					<rect x="252.1" y="839.2" class="st10" width="31.7" height="4.7"/>
				</g>
			</g>
			<g class="st4">
				<g>
					<rect x="475.2" y="545.5" class="st16" width="110.4" height="255.1"/>
				</g>
				<g>
					<g>
						<rect x="489.6" y="560.2" class="st17" width="13.3" height="28.9"/>
						<rect x="506.7" y="560.2" class="st17" width="13.3" height="28.9"/>
						<rect x="523.8" y="560.2" class="st17" width="13.3" height="28.9"/>
						<rect x="540.9" y="560.2" class="st17" width="13.3" height="28.9"/>
						<rect x="558" y="560.2" class="st17" width="13.3" height="28.9"/>
					</g>
					<g>
						<rect x="489.6" y="599.2" class="st17" width="13.3" height="28.9"/>
						<rect x="506.7" y="599.2" class="st17" width="13.3" height="28.9"/>
						<rect x="523.8" y="599.2" class="st17" width="13.3" height="28.9"/>
						<rect x="540.9" y="599.2" class="st17" width="13.3" height="28.9"/>
						<rect x="558" y="599.2" class="st17" width="13.3" height="28.9"/>
					</g>
					<g>
						<rect x="489.6" y="638.2" class="st17" width="13.3" height="28.9"/>
						<rect x="506.7" y="638.2" class="st17" width="13.3" height="28.9"/>
						<rect x="523.8" y="638.2" class="st17" width="13.3" height="28.9"/>
						<rect x="540.9" y="638.2" class="st17" width="13.3" height="28.9"/>
						<rect x="558" y="638.2" class="st17" width="13.3" height="28.9"/>
					</g>
					<g>
						<rect x="489.6" y="677.2" class="st17" width="13.3" height="28.9"/>
						<rect x="506.7" y="677.2" class="st17" width="13.3" height="28.9"/>
						<rect x="523.8" y="677.2" class="st17" width="13.3" height="28.9"/>
						<rect x="540.9" y="677.2" class="st17" width="13.3" height="28.9"/>
						<rect x="558" y="677.2" class="st17" width="13.3" height="28.9"/>
					</g>
					<g>
						<rect x="489.6" y="716.2" class="st17" width="13.3" height="28.9"/>
						<rect x="506.7" y="716.2" class="st17" width="13.3" height="28.9"/>
						<rect x="523.8" y="716.2" class="st17" width="13.3" height="28.9"/>
						<rect x="540.9" y="716.2" class="st17" width="13.3" height="28.9"/>
						<rect x="558" y="716.2" class="st17" width="13.3" height="28.9"/>
					</g>
					<g>
						<rect x="489.6" y="755.2" class="st17" width="13.3" height="28.9"/>
						<rect x="506.7" y="755.2" class="st17" width="13.3" height="28.9"/>
						<rect x="523.8" y="755.2" class="st17" width="13.3" height="28.9"/>
						<rect x="540.9" y="755.2" class="st17" width="13.3" height="28.9"/>
						<rect x="558" y="755.2" class="st17" width="13.3" height="28.9"/>
					</g>
					<g>
						<rect x="484" y="820.2" class="st17" width="15.1" height="6.3"/>
						<rect x="503.5" y="820.2" class="st17" width="15.1" height="6.3"/>
						<rect x="522.9" y="820.2" class="st17" width="15.1" height="6.3"/>
						<rect x="542.3" y="820.2" class="st17" width="15.1" height="6.3"/>
						<rect x="561.7" y="820.2" class="st17" width="15.1" height="6.3"/>
					</g>
				</g>
			</g>
			<g class="st4">
				<g>
					<rect x="558.4" y="473.7" class="st18" width="122.4" height="377"/>
				</g>
				<rect x="567.1" y="488.6" class="st10" width="31.7" height="19"/>
				<rect x="603.7" y="488.6" class="st10" width="31.7" height="19"/>
				<rect x="640.3" y="488.6" class="st10" width="31.7" height="19"/>
				<g>
					<rect x="567.1" y="513.9" class="st10" width="31.7" height="19"/>
					<rect x="603.7" y="513.9" class="st10" width="31.7" height="19"/>
					<rect x="640.3" y="513.9" class="st10" width="31.7" height="19"/>
				</g>
				<g>
					<rect x="567.1" y="539.1" class="st10" width="31.7" height="19"/>
					<rect x="603.7" y="539.1" class="st10" width="31.7" height="19"/>
					<rect x="640.3" y="539.1" class="st10" width="31.7" height="19"/>
				</g>
				<g>
					<rect x="567.1" y="564.4" class="st10" width="31.7" height="19"/>
					<rect x="603.7" y="564.4" class="st10" width="31.7" height="19"/>
					<rect x="640.3" y="564.4" class="st10" width="31.7" height="19"/>
				</g>
				<g>
					<rect x="567.1" y="589.7" class="st10" width="31.7" height="19"/>
					<rect x="603.7" y="589.7" class="st10" width="31.7" height="19"/>
					<rect x="640.3" y="589.7" class="st10" width="31.7" height="19"/>
				</g>
				<g>
					<rect x="567.1" y="614.9" class="st10" width="31.7" height="19"/>
					<rect x="603.7" y="614.9" class="st10" width="31.7" height="19"/>
					<rect x="640.3" y="614.9" class="st10" width="31.7" height="19"/>
				</g>
				<rect x="567.1" y="640.2" class="st10" width="31.7" height="19"/>
				<rect x="603.7" y="640.2" class="st10" width="31.7" height="19"/>
				<rect x="640.3" y="640.2" class="st10" width="31.7" height="19"/>
				<g>
					<rect x="567.1" y="665.5" class="st10" width="31.7" height="19"/>
					<rect x="603.7" y="665.5" class="st10" width="31.7" height="19"/>
					<rect x="640.3" y="665.5" class="st10" width="31.7" height="19"/>
				</g>
				<g>
					<rect x="567.1" y="690.7" class="st10" width="31.7" height="19"/>
					<rect x="603.7" y="690.7" class="st10" width="31.7" height="19"/>
					<rect x="640.3" y="690.7" class="st10" width="31.7" height="19"/>
				</g>
				<g>
					<rect x="567.1" y="716" class="st10" width="31.7" height="19"/>
					<rect x="603.7" y="716" class="st10" width="31.7" height="19"/>
					<rect x="640.3" y="716" class="st10" width="31.7" height="19"/>
				</g>
				<g>
					<rect x="567.1" y="741.3" class="st10" width="31.7" height="19"/>
					<rect x="603.7" y="741.3" class="st10" width="31.7" height="19"/>
					<rect x="640.3" y="741.3" class="st10" width="31.7" height="19"/>
				</g>
				<g>
					<rect x="567.1" y="766.5" class="st10" width="31.7" height="19"/>
					<rect x="603.7" y="766.5" class="st10" width="31.7" height="19"/>
					<rect x="640.3" y="766.5" class="st10" width="31.7" height="19"/>
				</g>
				<g>
					<rect x="567.1" y="791.8" class="st10" width="31.7" height="19"/>
					<rect x="603.7" y="791.8" class="st10" width="31.7" height="19"/>
					<rect x="640.3" y="791.8" class="st10" width="31.7" height="19"/>
				</g>
				<g>
					<rect x="567.1" y="817.1" class="st10" width="31.7" height="19"/>
					<rect x="603.7" y="817.1" class="st10" width="31.7" height="19"/>
					<rect x="640.3" y="817.1" class="st10" width="31.7" height="19"/>
				</g>
				<g>
					<rect x="567.1" y="842.3" class="st10" width="31.7" height="5.1"/>
					<rect x="603.7" y="842.3" class="st10" width="31.7" height="5.1"/>
					<rect x="640.3" y="842.3" class="st10" width="31.7" height="5.1"/>
				</g>
			</g>
			<rect x="13.3" y="455.4" class="st7" width="68.2" height="78.1"/>
		</g>
	</g>
</g>
<g>
	<path class="st19" d="M221,278.6c-0.1,0-0.3,0-0.5,0c0-0.1,0-0.1,0-0.2c0-4.2-3.4-7.6-7.6-7.6c-0.7,0-1.3,0.1-1.9,0.2
		c-0.9-6.2-6.2-10.9-12.6-10.9c-5.8,0-10.6,3.8-12.2,9.1c-5.4,0-9.8,4.4-9.8,9.8c0,4.9,3.6,9,8.3,9.7c0.1,0.1,0.2,0.1,0.3,0.1h32.4
		c0.1,0,0.2,0,0.2-0.1c1.5,0,2.7,0,3.3,0c2.8,0,5.2-2.3,5.2-5.1C226.1,280.9,223.8,278.6,221,278.6z"/>
	<path class="st20" d="M582.6,254.6c-0.1,0-0.3,0-0.5,0c0-0.1,0-0.1,0-0.2c0-4.1-3.3-7.4-7.4-7.4c-0.6,0-1.2,0.1-1.8,0.2
		c-0.9-6-6-10.5-12.2-10.5c-5.6,0-10.3,3.7-11.8,8.8c-5.2,0-9.5,4.3-9.5,9.5c0,4.8,3.5,8.7,8,9.4c0.1,0.1,0.2,0.1,0.3,0.1h31.4
		c0.1,0,0.2,0,0.2-0.1c1.5,0,2.6,0,3.2,0c2.8,0,5-2.2,5-5C587.6,256.8,585.3,254.6,582.6,254.6z"/>
	<path class="st20" d="M452.6,300.3c-0.1,0-0.3,0-0.5,0c0-0.1,0-0.1,0-0.2c0-4.1-3.3-7.4-7.4-7.4c-0.6,0-1.2,0.1-1.8,0.2
		c-0.9-6-6-10.5-12.2-10.5c-5.6,0-10.3,3.7-11.8,8.8c-5.2,0-9.5,4.3-9.5,9.5c0,4.8,3.5,8.7,8,9.4c0.1,0.1,0.2,0.1,0.3,0.1h31.4
		c0.1,0,0.2,0,0.2-0.1c1.5,0,2.6,0,3.2,0c2.8,0,5-2.2,5-5C457.6,302.5,455.4,300.3,452.6,300.3z"/>
</g>
<g>
	<path class="st21" d="M328.9,276.8c0-8.9-7.2-16.2-16.2-16.2l0,0l0,0l0,0l0,0c-8.9,0-16.2,7.2-16.2,16.2c0,0.1,0,0.1,0,0.2
		c0,0.1,0,0.1,0,0.2c0,9.4,9.5,15.7,11.9,21.9c1.3,3.3,1.5,5.1,4.3,5.2l0,0l0,0l0,0l0,0c2.8-0.1,3.1-1.9,4.3-5.2
		c2.3-6.1,11.9-12.4,11.9-21.9c0-0.1,0-0.1,0-0.2C328.9,276.9,328.9,276.9,328.9,276.8z"/>
	<g>
		<path class="st22" d="M304.4,276.8c0,0.1,0,0.1,0,0.2c0,0.1,0,0.1,0,0.2c0,9.4,4.9,15.7,6.1,21.9c0.6,3.3,0.8,5.1,2.2,5.2v-43.6
			C308.1,260.7,304.4,267.9,304.4,276.8z"/>
		<path class="st23" d="M321,276.8c0-8.9-3.7-16.2-8.3-16.2l0,0v43.6l0,0c1.5-0.1,1.6-1.9,2.2-5.2c1.2-6.1,6.1-12.4,6.1-21.9
			c0-0.1,0-0.1,0-0.2C321,276.9,321,276.9,321,276.8z"/>
	</g>
	<g>
		<rect x="308.6" y="299.7" class="st24" width="4.1" height="7.3"/>
		<rect x="312.7" y="299.7" class="st25" width="4.1" height="7.3"/>
	</g>
</g>
<g>
	<path class="st26" d="M670.7,228.7c0-6.5-5.3-11.8-11.8-11.8l0,0l0,0l0,0l0,0c-6.5,0-11.8,5.3-11.8,11.8c0,0,0,0.1,0,0.1
		c0,0.1,0,0.1,0,0.2c0,6.9,6.9,11.5,8.6,15.9c0.9,2.4,1.1,3.7,3.1,3.8l0,0l0,0l0,0l0,0c2.1-0.1,2.2-1.4,3.1-3.8
		c1.7-4.5,8.6-9.1,8.6-15.9c0-0.1,0-0.1,0-0.2C670.7,228.8,670.7,228.7,670.7,228.7z"/>
	<g>
		<path class="st27" d="M652.8,228.7c0,0,0,0.1,0,0.1c0,0.1,0,0.1,0,0.2c0,6.9,3.6,11.5,4.5,15.9c0.5,2.4,0.6,3.7,1.6,3.8v-31.8
			C655.6,216.9,652.8,222.2,652.8,228.7z"/>
		<path class="st28" d="M665,228.7c0-6.5-2.7-11.8-6.1-11.8l0,0v31.8l0,0c1.1-0.1,1.1-1.4,1.6-3.8c0.9-4.5,4.5-9.1,4.5-15.9
			c0-0.1,0-0.1,0-0.2C665,228.8,665,228.7,665,228.7z"/>
	</g>
	<g>
		<rect x="655.9" y="245.4" class="st24" width="3" height="5.3"/>
		<rect x="658.9" y="245.4" class="st25" width="3" height="5.3"/>
	</g>
</g>
</svg>
