<svg id="Слой_1" data-name="Слой 1" xmlns="http://www.w3.org/2000/svg" viewBox="0 0 316.52 316.52" width="8px" height="8px">
  <defs>
    <style>.cls-1{fill:#fff;}</style>
  </defs>
  <title>x</title>
  <path id="завершить_редактирование" data-name="завершить редактирование" class="cls-1"
        d="M270.11,746.11h0c-9.28-9.28-9.28-24.13,0-32.49L388.92,594.81,270.11,476.93c-9.28-9.28-9.28-23.2,0-32.49h0c9.28-9.28,23.2-9.28,32.49,0L421.41,563.25,539.29,444.44c9.28-9.28,23.21-9.28,32.49,0h0c9.28,9.28,9.28,23.2,0,32.49L453.9,595.74,572.71,714.55c9.28,9.28,9.28,23.21,0,32.49h0c-9.28,9.28-23.2,9.28-32.49,0L421.41,628.23,302.6,746.11C293.32,755.39,279.39,755.39,270.11,746.11Z"
        transform="translate(-263.15 -437.48)"/>
</svg>
