<svg id="Layer_1" data-name="Layer 1" xmlns="http://www.w3.org/2000/svg" viewBox="0 0 25.99 32.05" width="42" height="42">
    <defs>
        <style>.cls-1{fill:#2196f3;}.cls-2{fill:#1565c0;}</style>
    </defs>
    <title>pin-blue</title>
    <g id="Layer_2" data-name="Layer 2">
        <g id="Layer_1-2" data-name="Layer 1-2">
            <path class="cls-1"
                  d="M29,13.25A13.13,13.13,0,0,0,16,0,13.13,13.13,0,0,0,3,13.25V14a3.32,3.32,0,0,0,0,.34c0,8.15,12,17.39,12,17.39a1.68,1.68,0,0,0,2,0c1-.76,12-9.23,12-17.39V13.25ZM16,17.39a4.14,4.14,0,1,1,4-4.27s0,.09,0,.14a4,4,0,0,1-3.86,4.13Z"
                  transform="translate(-3 0)"/>
            <path class="cls-2"
                  d="M16,6.7a6.56,6.56,0,1,0,6.43,6.67s0-.08,0-.12A6.5,6.5,0,0,0,16,6.7Zm0,10.67a4.14,4.14,0,1,1,4-4.27s0,.09,0,.14a4,4,0,0,1-3.83,4.15H16Z"
                  transform="translate(-3 0)"/>
        </g>
    </g>
</svg>
