<?xml version="1.0" encoding="utf-8"?>
<!-- Generator: Adobe Illustrator 21.1.0, SVG Export Plug-In . SVG Version: 6.00 Build 0)  -->
<svg version="1.1" id="Layer_1" xmlns="http://www.w3.org/2000/svg" xmlns:xlink="http://www.w3.org/1999/xlink" x="0px" y="0px"    width="52" height="52"
	 viewBox="0 0 48 49.1" style="enable-background:new 0 0 48 49.1;" xml:space="preserve">
<style type="text/css">
	.st0{fill:#E74C3C;}
	.st1{fill:#C0392B;}
	.st2{fill:#FFD955;stroke:#000000;stroke-width:0.7202;stroke-miterlimit:10;}
	.st3{font-family:'Roboto-Regular';}
	.st4{font-size:12px;}
</style>
<title></title>
<g id="Layer_2">
	<g id="Layer_1-2">
		<path class="st0" d="M36.8,30.7c0.1-7.1-5.6-13-12.8-13.1c-7.1,0.1-12.9,5.9-12.8,13.1c0,0.2,0,0.5,0,0.7c0,0.1,0,0.2,0,0.3
			c0,8.1,11.8,17.1,11.8,17.1c0.6,0.4,1.4,0.4,2,0c1-0.8,11.8-9.1,11.8-17.1c0-0.2,0-0.3,0-0.3S36.8,30.9,36.8,30.7z M24,34.7
			c-2.3,0.1-4.1-1.7-4.2-3.9c-0.1-2.3,1.7-4.1,3.9-4.2c2.3-0.1,4.1,1.7,4.2,3.9v0.1C28,32.8,26.4,34.6,24,34.7
			C24.1,34.7,24,34.7,24,34.7z"/>
		<path class="st1" d="M24,24.2c-3.5-0.1-6.5,2.8-6.6,6.3s2.8,6.5,6.3,6.6c3.5,0.1,6.5-2.8,6.6-6.3v-0.1
			C30.4,27.1,27.5,24.2,24,24.2L24,24.2z M24,34.7c-2.3,0.1-4.1-1.7-4.2-3.9c-0.1-2.3,1.7-4.1,3.9-4.2c2.3-0.1,4.1,1.7,4.2,3.9v0.1
			c0.1,2.2-1.6,4-3.7,4.1C24.1,34.7,24.1,34.7,24,34.7L24,34.7z"/>
	</g>
</g>
<path class="st2" d="M24.5,15.4L24.5,15.4c-3.9,0-7.2-3.2-7.2-7.2v0c0-3.9,3.2-7.2,7.2-7.2h0c3.9,0,7.2,3.2,7.2,7.2v0
	C31.7,12.2,28.5,15.4,24.5,15.4z"/>
<text transform="matrix(1 0 0 1 21.1548 12.4963)" class="st3 st4">8</text>
</svg>
