<?xml version="1.0" encoding="utf-8"?>
<!-- Generator: Adobe Illustrator 21.1.0, SVG Export Plug-In . SVG Version: 6.00 Build 0)  -->
<svg version="1.1" id="Layer_1" xmlns="http://www.w3.org/2000/svg" xmlns:xlink="http://www.w3.org/1999/xlink" x="0px" y="0px"
	 viewBox="0 0 32 50.2" style="enable-background:new 0 0 32 50.2;" xml:space="preserve" width="58" height="58">
<style type="text/css">
	.st0{fill:#2196F3;}
	.st1{fill:#1565C0;}
	.st2{fill:#FFD955;stroke:#000000;stroke-width:0.7202;stroke-miterlimit:10;}
</style>
<title>pin-blue</title>
<g id="Layer_2">
	<g id="Layer_1-2">
		<path class="st0" d="M29,31.4c0.1-7.2-5.7-13.2-13-13.2c-7.2,0.1-13,6-13,13.2v0.7c0,0.1,0,0.2,0,0.3c0,8.1,12,17.4,12,17.4
			c0.6,0.4,1.4,0.4,2,0c1-0.8,12-9.2,12-17.4V31.4z M16,35.5c-2.3,0.1-4.2-1.7-4.3-4c-0.1-2.3,1.7-4.2,4-4.3s4.2,1.7,4.3,4
			c0,0,0,0,0,0c0,0,0,0.1,0,0.1c0.1,2.2-1.7,4-3.9,4.1H16z"/>
		<path class="st1" d="M16,24.9c-3.6-0.1-6.6,2.8-6.7,6.4c-0.1,3.6,2.8,6.6,6.4,6.7c3.6,0.1,6.6-2.8,6.7-6.4c0,0,0,0,0,0
			c0,0,0-0.1,0-0.1C22.5,27.8,19.6,24.9,16,24.9z M16,35.5c-2.3,0.1-4.2-1.7-4.3-4c-0.1-2.3,1.7-4.2,4-4.3s4.2,1.7,4.3,4
			c0,0,0,0,0,0c0,0,0,0.1,0,0.1c0.1,2.2-1.6,4.1-3.8,4.1L16,35.5L16,35.5z"/>
	</g>
</g>
<path class="st2" d="M19.2,1L19.2,1c-1.2-0.1-2.4,0.4-3.2,1.3c-0.8-0.9-2-1.4-3.2-1.3c-2.2,0-4,1.8-4,4.1c0,0,0,0,0,0c0,0,0,0,0,0.1
	c0,1.5,0.6,2.4,1.5,3.3c1.2,1.1,4.8,4.6,5.4,5.8c0.1,0.2,0.3,0.2,0.4,0.2c0.1,0,0.1-0.1,0.2-0.2c0.6-1.2,4.2-4.7,5.4-5.9
	c1-0.9,1.5-1.7,1.5-3.3C23.2,2.8,21.5,1,19.2,1C19.2,1,19.2,1,19.2,1L19.2,1z"/>
</svg>
