<?xml version="1.0" ?>
<svg viewBox="0 0 13 16.01" xmlns="http://www.w3.org/2000/svg" width="32" height="32">
    <defs>
        <style>.cls-1{fill:#e74c3c;}.cls-1,.cls-2{fill-rule:evenodd;}.cls-2{fill:#c0392b;}</style>
    </defs>
    <title/>
    <g data-name="Layer 2" id="Layer_2">
        <g data-name="Layer 1" id="Layer_1-2">
            <path class="cls-1"
                  d="M13,6.63A6.57,6.57,0,0,0,6.5,0,6.57,6.57,0,0,0,0,6.63C0,6.75,0,6.86,0,7a1.66,1.66,0,0,0,0,.17c0,4.08,6,8.7,6,8.7a.84.84,0,0,0,1,0c.5-.38,6-4.62,6-8.7C13,7.08,13,7,13,7S13,6.75,13,6.63ZM6.5,8.7a2.07,2.07,0,1,1,2-2.07A2,2,0,0,1,6.5,8.7Z"/>
            <path class="cls-2"
                  d="M6.5,3.35A3.28,3.28,0,1,0,9.72,6.63,3.25,3.25,0,0,0,6.5,3.35Zm0,5.34a2.07,2.07,0,1,1,2-2.07A2,2,0,0,1,6.5,8.7Z"/>
        </g>
    </g>
</svg>