<?xml version="1.0" encoding="utf-8"?>
<!-- Generator: Adobe Illustrator 21.1.0, SVG Export Plug-In . SVG Version: 6.00 Build 0)  -->
<svg version="1.1" id="Layer_1" xmlns="http://www.w3.org/2000/svg" xmlns:xlink="http://www.w3.org/1999/xlink" x="0px" y="0px"
	 viewBox="0 0 32 48.7" style="enable-background:new 0 0 32 48.7;" xml:space="preserve" width="48" height="48">
<style type="text/css">
	.st0{fill:#E74C3C;}
	.st1{fill:#C0392B;}
	.st2{fill:#FFD955;stroke:#000000;stroke-width:0.7202;stroke-miterlimit:10;}
</style>
<title></title>
<g id="Layer_2">
	<g id="Layer_1-2">
		<path class="st0" d="M29,30c0.1-7.2-5.7-13.2-13-13.3C8.8,16.8,2.9,22.7,3,30c0,0.2,0,0.5,0,0.7c0,0.1,0,0.2,0,0.3
			c0,8.2,12,17.4,12,17.4c0.6,0.4,1.4,0.4,2,0c1-0.8,12-9.2,12-17.4c0-0.2,0-0.3,0-0.3S29,30.2,29,30z M16,34.1
			c-2.3,0.1-4.2-1.7-4.3-4s1.7-4.2,4-4.3c2.3-0.1,4.2,1.7,4.3,4c0,0,0,0.1,0,0.1c0.1,2.2-1.6,4.1-3.9,4.1C16.1,34.1,16,34.1,16,34.1
			z"/>
		<path class="st1" d="M16,23.4c-3.6-0.1-6.6,2.8-6.7,6.4c-0.1,3.6,2.8,6.6,6.4,6.7c3.6,0.1,6.6-2.8,6.7-6.4c0,0,0-0.1,0-0.1
			C22.5,26.4,19.6,23.4,16,23.4C16,23.4,16,23.4,16,23.4z M16,34.1c-2.3,0.1-4.2-1.7-4.3-4s1.7-4.2,4-4.3c2.3-0.1,4.2,1.7,4.3,4
			c0,0,0,0.1,0,0.1c0.1,2.2-1.6,4.1-3.8,4.2C16.1,34.1,16.1,34.1,16,34.1L16,34.1z"/>
	</g>
</g>
<path class="st2" d="M19.7,0.8L19.7,0.8c-1.2-0.1-2.4,0.4-3.2,1.3c-0.8-0.9-2-1.4-3.2-1.3c-2.2,0-4,1.8-4,4.1c0,0,0,0,0,0
	c0,0,0,0,0,0.1c0,1.5,0.6,2.4,1.5,3.3c1.2,1.1,4.8,4.6,5.4,5.8c0.1,0.2,0.3,0.2,0.4,0.2c0.1,0,0.1-0.1,0.2-0.2
	c0.6-1.2,4.2-4.7,5.4-5.9c1-0.9,1.5-1.7,1.5-3.3C23.8,2.7,22,0.9,19.7,0.8C19.7,0.8,19.7,0.8,19.7,0.8L19.7,0.8z"/>
</svg>
