<?xml version="1.0" encoding="utf-8"?>
<!-- Generator: Adobe Illustrator 21.1.0, SVG Export Plug-In . SVG Version: 6.00 Build 0)  -->
<svg version="1.1" id="Layer_1" xmlns="http://www.w3.org/2000/svg" xmlns:xlink="http://www.w3.org/1999/xlink" x="0px" y="0px"  width="52" height="52"
	 viewBox="0 0 52 52" style="enable-background:new 0 0 52 52;" xml:space="preserve">
<style type="text/css">
	.st0{fill:#E74C3C;}
	.st1{fill:#C0392B;}
	.st2{fill:#FFD955;stroke:#000000;stroke-width:0.7202;stroke-miterlimit:10;}
	.st3{font-family:'Roboto-Regular';}
	.st4{font-size:11px;}
</style>
<title></title>
<g id="Layer_2">
	<g id="Layer_1-2">
		<path class="st0" d="M39.6,32.5C39.7,25,33.6,18.7,26,18.6c-7.5,0.1-13.7,6.2-13.6,13.9c0,0.2,0,0.5,0,0.7c0,0.1,0,0.2,0,0.3
			c0,8.6,12.5,18.1,12.5,18.1c0.6,0.4,1.5,0.4,2.1,0c1.1-0.8,12.5-9.6,12.5-18.1c0-0.2,0-0.3,0-0.3S39.6,32.7,39.6,32.5z M26,36.7
			c-2.4,0.1-4.3-1.8-4.4-4.1c-0.1-2.4,1.8-4.3,4.1-4.4c2.4-0.1,4.3,1.8,4.4,4.1v0.1C30.2,34.7,28.5,36.6,26,36.7
			C26.1,36.7,26,36.7,26,36.7z"/>
		<path class="st1" d="M26,25.6c-3.7-0.1-6.9,3-7,6.7c-0.1,3.7,3,6.9,6.7,7c3.7,0.1,6.9-3,7-6.7v-0.1C32.8,28.7,29.7,25.6,26,25.6
			L26,25.6z M26,36.7c-2.4,0.1-4.3-1.8-4.4-4.1c-0.1-2.4,1.8-4.3,4.1-4.4c2.4-0.1,4.3,1.8,4.4,4.1v0.1c0.1,2.3-1.7,4.2-3.9,4.3
			C26.1,36.7,26.1,36.7,26,36.7L26,36.7z"/>
	</g>
</g>
<path class="st2" d="M27.5,17.3h-1c-4.1,0-7.6-3.4-7.6-7.6V8.8c0-4.1,3.4-7.6,7.6-7.6h1c4.1,0,7.6,3.4,7.6,7.6v1
	C35.1,13.9,31.7,17.3,27.5,17.3z"/>
<text transform="matrix(1 0 0 1 20.8394 13.4798)" class="st3 st4">13</text>
</svg>
